<?xml version="1.0" encoding="utf-8"?>
<!DOCTYPE svg PUBLIC "-//W3C//DTD SVG 1.1//EN" "http://www.w3.org/Graphics/SVG/1.1/DTD/svg11.dtd" [
	<!ENTITY ns_svg "http://www.w3.org/2000/svg">
]>
<svg viewBox="-236.542 451.202 97.125 35.375" xmlns="http://www.w3.org/2000/svg" style="margin:1em 5em">
	<title>IGGI: Your future in games research</title>
	<g>
		<path fill="#BD9C5E" d="M-233.811,484.434v-2.003l1.866-2.829h-0.977l-1.325,2.068l-1.326-2.068h-0.968l1.881,2.829v2.003 H-233.811L-233.811,484.434z M-229.86,484.522c1.12,0,1.798-0.843,1.798-1.833c0-1.014-0.679-1.827-1.798-1.827 c-1.111,0-1.798,0.813-1.798,1.827C-231.657,483.679-230.97,484.522-229.86,484.522z M-229.86,483.851 c-0.648,0-1.005-0.548-1.005-1.161c0-0.625,0.356-1.155,1.005-1.155c0.655,0,1.005,0.53,1.005,1.155 C-228.854,483.303-229.205,483.851-229.86,483.851z M-224.167,484.434v-3.501h-0.76v2.458c-0.168,0.242-0.501,0.459-0.893,0.459 c-0.434,0-0.71-0.177-0.71-0.708v-2.21h-0.761v2.493c0,0.702,0.377,1.096,1.132,1.096c0.554,0,0.987-0.277,1.231-0.535v0.447 H-224.167L-224.167,484.434z M-222.418,484.434v-2.381c0.15-0.241,0.578-0.471,0.904-0.471c0.095,0,0.171,0.006,0.232,0.018 v-0.737c-0.445,0-0.866,0.247-1.137,0.588v-0.519h-0.761v3.501H-222.418z M-217.842,484.434v-2.84h0.71v-0.661h-0.71v-0.195 c0-0.388,0.183-0.583,0.483-0.583c0.162,0,0.295,0.064,0.396,0.159l0.303-0.472c-0.215-0.235-0.521-0.3-0.843-0.3 c-0.66,0-1.099,0.437-1.099,1.197v0.194h-0.587v0.66h0.587v2.841h0.76V484.434z M-213.43,484.434v-3.501h-0.761v2.458 c-0.177,0.242-0.509,0.459-0.893,0.459c-0.434,0-0.709-0.177-0.709-0.708v-2.21h-0.762v2.493c0,0.702,0.378,1.096,1.133,1.096 c0.545,0,0.987-0.277,1.231-0.535v0.447H-213.43L-213.43,484.434z M-211.388,484.522c0.345,0,0.571-0.1,0.709-0.217l-0.181-0.579 c-0.057,0.071-0.189,0.125-0.334,0.125c-0.212,0-0.333-0.183-0.333-0.413v-1.843h0.71v-0.661h-0.71v-0.955h-0.76v0.955h-0.577 v0.661h0.577v2.032C-212.287,484.21-211.978,484.522-211.388,484.522z M-207.01,484.434v-3.501h-0.765v2.458 c-0.168,0.242-0.501,0.459-0.884,0.459c-0.443,0-0.711-0.177-0.711-0.708v-2.21h-0.76v2.493c0,0.702,0.377,1.096,1.122,1.096 c0.555,0,0.988-0.277,1.232-0.535v0.447H-207.01L-207.01,484.434z M-205.267,484.434v-2.381c0.159-0.241,0.587-0.471,0.909-0.471 c0.089,0,0.167,0.006,0.229,0.018v-0.737c-0.445,0-0.866,0.247-1.138,0.588v-0.519h-0.76v3.501H-205.267z M-201.884,484.522 c0.546,0,1.062-0.182,1.421-0.507l-0.354-0.495c-0.251,0.241-0.646,0.389-0.999,0.389c-0.66,0-1.05-0.447-1.105-0.961h2.696 v-0.189c0-1.108-0.666-1.896-1.724-1.896c-1.028,0-1.771,0.807-1.771,1.827C-203.72,483.803-202.948,484.522-201.884,484.522z  M-200.961,482.4h-1.966c0.023-0.43,0.333-0.925,0.973-0.925C-201.262,481.475-200.98,481.976-200.961,482.4z M-197.222,480.515 c0.265,0,0.471-0.207,0.471-0.472c0-0.265-0.206-0.471-0.471-0.471c-0.256,0-0.472,0.207-0.472,0.471 C-197.694,480.308-197.478,480.515-197.222,480.515z M-196.845,484.434v-3.501h-0.76v3.501H-196.845z M-192.727,484.434v-2.463 c0-0.708-0.378-1.107-1.133-1.107c-0.545,0-1.005,0.282-1.237,0.542v-0.472h-0.76v3.501h0.76V482 c0.183-0.241,0.516-0.465,0.899-0.465c0.427,0,0.71,0.16,0.71,0.712v2.187H-192.727z M-188.742,485.854 c0.854,0,1.798-0.33,1.798-1.603v-3.318h-0.761v0.501c-0.283-0.377-0.678-0.572-1.125-0.572c-0.905,0-1.545,0.659-1.545,1.797 c0,1.149,0.659,1.78,1.545,1.78c0.459,0,0.853-0.225,1.125-0.583v0.395c0,0.748-0.534,0.99-1.037,0.99 c-0.465,0-0.822-0.117-1.111-0.453l-0.359,0.553C-189.779,485.73-189.332,485.854-188.742,485.854z M-188.604,483.762 c-0.609,0-0.992-0.43-0.992-1.102c0-0.69,0.383-1.126,0.992-1.126c0.36,0,0.723,0.207,0.899,0.466v1.297 C-187.881,483.556-188.244,483.762-188.604,483.762z M-183.053,484.434v-2.315c0-0.938-0.679-1.255-1.465-1.255 c-0.552,0-1.062,0.159-1.472,0.548l0.321,0.536c0.296-0.3,0.648-0.453,1.038-0.453c0.477,0,0.815,0.253,0.815,0.653v0.529 c-0.257-0.294-0.659-0.452-1.137-0.452c-0.571,0-1.205,0.34-1.205,1.144c0,0.766,0.64,1.154,1.205,1.154 c0.465,0,0.881-0.152,1.137-0.471v0.382H-183.053L-183.053,484.434z M-184.642,484.009c-0.428,0-0.756-0.252-0.756-0.636 c0-0.377,0.328-0.635,0.756-0.635c0.327,0,0.654,0.135,0.827,0.364v0.542C-183.988,483.875-184.315,484.009-184.642,484.009z  M-177.007,484.434v-2.516c0-0.719-0.371-1.055-1.004-1.055c-0.536,0-0.994,0.318-1.188,0.625 c-0.119-0.377-0.441-0.625-0.963-0.625c-0.534,0-0.993,0.336-1.144,0.542v-0.472h-0.762v3.5h0.762V482 c0.164-0.236,0.472-0.466,0.81-0.466c0.416,0,0.576,0.243,0.576,0.62v2.28h0.766V482c0.149-0.241,0.466-0.466,0.811-0.466 c0.406,0,0.577,0.243,0.577,0.62v2.28H-177.007L-177.007,484.434z M-174.399,484.522c0.554,0,1.07-0.183,1.42-0.507l-0.344-0.495 c-0.26,0.241-0.655,0.389-0.999,0.389c-0.661,0-1.059-0.447-1.114-0.961h2.696v-0.188c0-1.109-0.666-1.897-1.715-1.897 c-1.037,0-1.78,0.807-1.78,1.827C-176.235,483.804-175.454,484.522-174.399,484.522z M-173.469,482.4h-1.973 c0.031-0.43,0.333-0.925,0.98-0.925C-173.778,481.475-173.494,481.978-173.469,482.4z M-170.786,484.522 c0.943,0,1.459-0.471,1.459-1.083c0-1.397-2.119-0.932-2.119-1.556c0-0.237,0.254-0.426,0.649-0.426 c0.438,0,0.83,0.189,1.036,0.413l0.321-0.524c-0.315-0.278-0.76-0.484-1.357-0.484c-0.889,0-1.377,0.484-1.377,1.055 c0,1.344,2.117,0.855,2.117,1.538c0,0.277-0.236,0.467-0.697,0.467c-0.444,0-0.937-0.243-1.182-0.484l-0.345,0.549 C-171.924,484.328-171.38,484.522-170.786,484.522L-170.786,484.522z M-165.931,484.434v-2.381 c0.149-0.242,0.577-0.471,0.903-0.471c0.095,0,0.162,0.005,0.233,0.018v-0.737c-0.454,0-0.875,0.247-1.137,0.589v-0.519h-0.761 v3.5H-165.931z M-162.558,484.522c0.554,0,1.07-0.183,1.42-0.507l-0.345-0.495c-0.259,0.241-0.654,0.389-0.999,0.389 c-0.66,0-1.057-0.447-1.113-0.961h2.695v-0.188c0-1.109-0.665-1.897-1.715-1.897c-1.037,0-1.78,0.807-1.78,1.827 C-164.395,483.804-163.613,484.522-162.558,484.522z M-161.627,482.4h-1.974c0.031-0.43,0.333-0.925,0.981-0.925 C-161.937,481.475-161.653,481.978-161.627,482.4z M-158.945,484.522c0.943,0,1.464-0.471,1.464-1.083 c0-1.397-2.124-0.932-2.124-1.556c0-0.237,0.252-0.426,0.647-0.426c0.443,0,0.832,0.189,1.038,0.413l0.316-0.524 c-0.311-0.278-0.759-0.484-1.354-0.484c-0.885,0-1.377,0.484-1.377,1.055c0,1.344,2.119,0.855,2.119,1.538 c0,0.277-0.242,0.467-0.695,0.467c-0.448,0-0.938-0.243-1.185-0.484l-0.346,0.549 C-160.083,484.328-159.542,484.522-158.945,484.522z M-155.096,484.522c0.553,0,1.062-0.183,1.421-0.507l-0.354-0.495 c-0.261,0.241-0.655,0.389-0.994,0.389c-0.658,0-1.062-0.447-1.11-0.961h2.688v-0.188c0-1.109-0.666-1.897-1.715-1.897 c-1.037,0-1.777,0.807-1.777,1.827C-156.939,483.804-156.154,484.522-155.096,484.522z M-154.166,482.4h-1.974 c0.023-0.43,0.324-0.925,0.972-0.925C-154.484,481.475-154.202,481.978-154.166,482.4z M-149.78,484.434v-2.315 c0-0.938-0.679-1.255-1.474-1.255c-0.542,0-1.061,0.159-1.462,0.548l0.313,0.536c0.294-0.3,0.647-0.453,1.037-0.453 c0.477,0,0.825,0.253,0.825,0.653v0.529c-0.267-0.294-0.661-0.452-1.138-0.452c-0.572,0-1.214,0.34-1.214,1.144 c0,0.766,0.647,1.154,1.214,1.154c0.465,0,0.871-0.152,1.138-0.471v0.382H-149.78L-149.78,484.434z M-151.377,484.009 c-0.418,0-0.754-0.252-0.754-0.636c0-0.377,0.336-0.635,0.754-0.635c0.318,0,0.654,0.135,0.837,0.364v0.542 C-150.723,483.875-151.059,484.009-151.377,484.009z M-148.042,484.434v-2.381c0.159-0.242,0.578-0.471,0.913-0.471 c0.095,0,0.172,0.005,0.225,0.018v-0.737c-0.437,0-0.866,0.247-1.138,0.589v-0.519h-0.76v3.5H-148.042z M-144.681,484.522 c0.684,0,1.084-0.294,1.337-0.613l-0.496-0.471c-0.21,0.276-0.464,0.412-0.812,0.412c-0.638,0-1.056-0.483-1.056-1.161 c0-0.678,0.418-1.156,1.056-1.156c0.348,0,0.603,0.125,0.812,0.4l0.496-0.459c-0.253-0.322-0.653-0.612-1.337-0.612 c-1.073,0-1.804,0.771-1.804,1.827C-146.485,483.744-145.755,484.522-144.681,484.522z M-139.542,484.434v-2.476 c0-0.707-0.377-1.095-1.132-1.095c-0.554,0-0.991,0.282-1.231,0.542v-1.804h-0.76v4.832h0.76V482 c0.176-0.241,0.501-0.466,0.908-0.466c0.418,0,0.695,0.148,0.695,0.702v2.2h0.76V484.434z"/>
		<path fill="#333" d="M-230.255,451.911c0.505,0,0.937,0.178,1.294,0.538c0.358,0.357,0.538,0.789,0.538,1.293 c0,0.495-0.179,0.923-0.538,1.28c-0.357,0.358-0.789,0.537-1.294,0.537c-0.496,0-0.922-0.179-1.279-0.537 c-0.357-0.359-0.536-0.785-0.536-1.281c0-0.503,0.179-0.937,0.537-1.292C-231.177,452.089-230.75,451.911-230.255,451.911z  M-231.361,458.984h2.228v17.175h-2.228V458.984L-231.361,458.984z M-194.609,456.836l-1.801,1.706 c-1.294-1.274-2.711-2.239-4.253-2.896c-1.542-0.658-3.043-0.986-4.508-0.986c-1.82,0-3.554,0.447-5.2,1.341 c-1.647,0.895-2.922,2.106-3.829,3.64c-0.905,1.532-1.358,3.15-1.358,4.854c0,1.746,0.469,3.407,1.405,4.981 c0.937,1.574,2.231,2.81,3.885,3.71c1.652,0.898,3.46,1.346,5.43,1.346c2.388,0,4.409-0.672,6.062-2.019 c1.651-1.347,2.63-3.092,2.936-5.24h-7.403v-2.243h10.009c-0.021,3.588-1.088,6.438-3.198,8.549 c-2.11,2.109-4.934,3.165-8.469,3.165c-4.295,0-7.694-1.464-10.198-4.389c-1.926-2.252-2.889-4.855-2.889-7.814 c0-2.2,0.553-4.247,1.657-6.14c1.106-1.895,2.621-3.375,4.547-4.444c1.927-1.067,4.104-1.602,6.536-1.602 c1.967,0,3.819,0.355,5.557,1.065C-197.956,454.129-196.26,455.269-194.609,456.836L-194.609,456.836z M-159.231,456.836 l-1.802,1.706c-1.292-1.274-2.709-2.239-4.252-2.897c-1.542-0.658-3.043-0.987-4.508-0.987c-1.82,0-3.554,0.447-5.2,1.341 c-1.647,0.896-2.922,2.107-3.828,3.64c-0.905,1.532-1.358,3.15-1.358,4.854c0,1.745,0.468,3.407,1.405,4.98 c0.935,1.574,2.231,2.81,3.883,3.712c1.653,0.897,3.462,1.346,5.429,1.346c2.39,0,4.411-0.672,6.062-2.02 c1.652-1.348,2.632-3.092,2.937-5.24h-7.404v-2.243h10.008c-0.021,3.588-1.085,6.438-3.196,8.549 c-2.112,2.109-4.934,3.165-8.47,3.165c-4.293,0-7.692-1.464-10.197-4.389c-1.926-2.251-2.889-4.856-2.889-7.814 c0-2.2,0.552-4.247,1.657-6.141c1.106-1.894,2.621-3.375,4.547-4.445c1.926-1.066,4.105-1.601,6.535-1.601 c1.968,0,3.822,0.355,5.557,1.066C-162.577,454.129-160.883,455.269-159.231,456.836L-159.231,456.836z M-145.842,451.911 c0.504,0,0.935,0.178,1.292,0.538c0.359,0.357,0.538,0.789,0.538,1.293c0,0.495-0.178,0.923-0.536,1.28 c-0.357,0.358-0.789,0.537-1.294,0.537c-0.495,0-0.92-0.179-1.279-0.537c-0.357-0.359-0.536-0.785-0.536-1.279 c0-0.504,0.179-0.937,0.538-1.293C-146.763,452.091-146.337,451.912-145.842,451.911L-145.842,451.911z M-146.948,458.984h2.226 v17.175h-2.227L-146.948,458.984L-146.948,458.984z"/>
	</g>
</svg>