<?xml version="1.0"?>
<svg viewBox="-1 -6.5 12 12" version="1.1" xmlns="http://www.w3.org/2000/svg">
	<defs>
		<style type="text/css"><![CDATA[
polygon {
	opacity: 0.2;
	fill: #555;
}
		]]></style>
	</defs>
	<polygon points="-0.19509,-0.980785 -0.156073,-0.784628 -0.306147,-0.739103 -0.382683,-0.92388"/>
	<polygon points="-0.382683,-0.92388 -0.306147,-0.739103 -0.444457,-0.665175 -0.55557,-0.83147"/>
	<polygon points="-0.55557,-0.83147 -0.444457,-0.665175 -0.565686,-0.565685 -0.707107,-0.707107"/>
	<polygon points="-0.707107,-0.707107 -0.565686,-0.565685 -0.665176,-0.444456 -0.83147,-0.55557"/>
	<polygon points="-0.83147,-0.55557 -0.665176,-0.444456 -0.739104,-0.306146 -0.92388,-0.382683"/>
	<polygon points="-0.92388,-0.382683 -0.739104,-0.306146 -0.784628,-0.156072 -0.980785,-0.19509"/>
	<polygon points="-0.980785,-0.19509 -0.784628,-0.156072 -0.8,1e-06 -1.0,-0.0"/>
	<polygon points="-1.0,-0.0 -0.8,1e-06 -0.784628,0.156073 -0.980785,0.19509"/>
	<polygon points="-0.980785,0.19509 -0.784628,0.156073 -0.739103,0.306148 -0.92388,0.382683"/>
	<polygon points="-0.92388,0.382683 -0.739103,0.306148 -0.665175,0.444457 -0.83147,0.55557"/>
	<polygon points="-0.83147,0.55557 -0.665175,0.444457 -0.565685,0.565686 -0.707107,0.707107"/>
	<polygon points="-0.707107,0.707107 -0.565685,0.565686 -0.444455,0.665176 -0.55557,0.83147"/>
	<polygon points="-0.55557,0.83147 -0.444455,0.665176 -0.306146,0.739104 -0.382683,0.92388"/>
	<polygon points="-0.382683,0.92388 -0.306146,0.739104 -0.156071,0.784628 -0.19509,0.980785"/>
	<polygon points="-0.19509,0.980785 -0.156071,0.784628 -1.0,0.0 0.0,1.0"/>
	<polygon points="0.0,1.0 -1.0,0.0 0.156072,0.784628 0.195091,0.980785"/>
	<polygon points="0.195091,0.980785 0.156072,0.784628 0.306147,0.739104 0.382684,0.923879"/>
	<polygon points="0.0,0.8 -0.0,-0.8 -0.156073,-0.784628 -0.19509,-0.980785"/>
	<polygon points="0.195089,-0.980786 0.156072,-0.784628 -0.0,-0.8 0.0,0.8"/>
	<polygon points="0.382682,-0.92388 0.306147,-0.739104 0.156072,-0.784628 0.195089,-0.980786"/>
	<polygon points="0.923879,-0.382684 0.739104,-0.306147 0.665176,-0.444456 0.831469,-0.555571"/>
	<polygon points="0.980785,-0.195091 0.784628,-0.156072 0.739104,-0.306147 0.923879,-0.382684"/>
	<polygon points="1.0,-1e-06 0.8,0.0 0.784628,-0.156072 0.980785,-0.195091"/>
	<polygon points="0.980785,0.195089 0.784628,0.156072 0.8,0.0 1.0,-1e-06"/>
	<polygon points="0.92388,0.382683 0.739104,0.306147 0.784628,0.156072 0.980785,0.195089"/>
	<polygon points="0.382684,0.923879 0.306147,0.739104 0.444456,0.665176 0.555571,0.831469"/>
	<polygon points="0.555571,0.831469 0.444456,0.665176 0.565685,0.565685 0.707107,0.707106"/>
	<polygon points="0.707107,0.707106 0.565685,0.565685 0.665176,0.444456 0.83147,0.55557"/>
	<polygon points="0.83147,0.55557 0.665176,0.444456 0.739104,0.306147 0.92388,0.382683"/>
	<polygon points="0.831469,-0.555571 0.665176,-0.444456 0.565685,-0.565685 0.707106,-0.707108"/>
	<polygon points="0.707106,-0.707108 0.565685,-0.565685 0.444456,-0.665176 0.555569,-0.83147"/>
	<polygon points="0.555569,-0.83147 0.444456,-0.665176 0.306147,-0.739104 0.382682,-0.92388"/>
	<polygon points="-0.8,0.0 -1.0,-2.0 0.0,-1.0 -0.8,-2.0"/>
	<polygon points="-0.19509,-0.980785 -0.382683,-0.92388 -0.707107,-0.707107 -0.55557,-0.83147"/>
	<polygon points="-0.83147,-0.55557 -0.665176,-0.444456 -0.739104,-0.306146 -0.92388,-0.382683"/>
	<polygon points="-0.92388,-0.382683 -0.739104,-0.306146 -0.784628,-0.156072 -0.980785,-0.19509"/>
	<polygon points="-0.980785,-0.19509 -0.784628,-0.156072 -0.8,1e-06 -1.0,-0.0"/>
	<polygon points="-1.0,-0.0 -0.8,1e-06 -0.784628,0.156073 -0.980785,0.19509"/>
	<polygon points="-0.980785,0.19509 -0.784628,0.156073 -0.739103,0.306148 -0.92388,0.382683"/>
	<polygon points="-0.92388,0.382683 -0.739103,0.306148 -0.665175,0.444457 -0.83147,0.55557"/>
	<polygon points="-0.83147,0.55557 -0.665175,0.444457 -0.565685,0.565686 -0.707107,0.707107"/>
	<polygon points="-0.707107,0.707107 -0.565685,0.565686 -0.444455,0.665176 -0.55557,0.83147"/>
	<polygon points="-0.55557,0.83147 -0.444455,0.665176 -0.306146,0.739104 -0.382683,0.92388"/>
	<polygon points="-0.382683,0.92388 -0.306146,0.739104 -0.156071,0.784628 -0.19509,0.980785"/>
	<polygon points="-0.19509,0.980785 -0.156071,0.784628 -1.0,0.0 0.0,1.0"/>
	<polygon points="0.0,1.0 -1.0,0.0 -0.8,0.0 0.195091,0.980785"/>
	<polygon points="0.195091,0.980785 -0.8,0.0 -1.0,-2.0 0.382684,0.923879"/>
	<polygon points="0.382684,0.923879 -1.0,-2.0 -0.8,-2.0 0.555571,0.831469"/>
	<polygon points="0.555571,0.831469 -0.8,-2.0 4.8,0.0 0.707107,0.707106"/>
	<polygon points="0.707107,0.707106 4.8,0.0 0.665176,0.444456 0.83147,0.55557"/>
	<polygon points="0.83147,0.55557 0.665176,0.444456 0.739104,0.306147 0.92388,0.382683"/>
	<polygon points="0.565685,0.565685 -0.565686,-0.565685 -0.665176,-0.444456 -0.83147,-0.55557"/>
	<polygon points="0.444456,0.665176 -0.444457,-0.665175 -0.565686,-0.565685 0.565685,0.565685"/>
	<polygon points="0.306147,0.739104 -0.306147,-0.739103 -0.444457,-0.665175 0.444456,0.665176"/>
	<polygon points="0.382682,-0.92388 0.306147,-0.739104 0.156072,-0.784628 0.195089,-0.980786"/>
	<polygon points="0.555569,-0.83147 0.444456,-0.665176 0.306147,-0.739104 0.382682,-0.92388"/>
	<polygon points="0.707106,-0.707108 0.565685,-0.565685 0.444456,-0.665176 0.555569,-0.83147"/>
	<polygon points="0.831469,-0.555571 0.665176,-0.444456 0.565685,-0.565685 0.707106,-0.707108"/>
	<polygon points="0.923879,-0.382684 0.739104,-0.306147 0.665176,-0.444456 0.831469,-0.555571"/>
	<polygon points="0.92388,0.382683 0.739104,0.306147 0.784628,0.156072 0.980785,0.195089"/>
	<polygon points="0.980785,0.195089 0.784628,0.156072 0.8,0.0 1.0,-1e-06"/>
	<polygon points="1.0,-1e-06 0.8,0.0 0.784628,-0.156072 0.980785,-0.195091"/>
	<polygon points="0.980785,-0.195091 0.784628,-0.156072 0.739104,-0.306147 0.923879,-0.382684"/>
	<polygon points="0.195089,-0.980786 0.156072,-0.784628 -0.0,-0.8 0.0,0.8"/>
	<polygon points="0.0,0.8 -0.0,-0.8 -0.156073,-0.784628 0.156072,0.784628"/>
	<polygon points="0.156072,0.784628 -0.156073,-0.784628 -0.306147,-0.739103 0.306147,0.739104"/>
	<polygon points="5.0,0.0 4.8,-2.0 4.0,-1.0 5.0,-2.0"/>
	<polygon points="3.80491,-0.980785 3.843927,-0.784628 3.693853,-0.739103 3.617316,-0.92388"/>
	<polygon points="3.617316,-0.92388 3.693853,-0.739103 3.555543,-0.665175 3.44443,-0.83147"/>
	<polygon points="3.44443,-0.83147 3.555543,-0.665175 3.434314,-0.565685 3.292893,-0.707107"/>
	<polygon points="3.292893,-0.707107 3.434314,-0.565685 3.334824,-0.444456 3.16853,-0.55557"/>
	<polygon points="3.16853,-0.55557 3.334824,-0.444456 3.260896,-0.306146 3.07612,-0.382683"/>
	<polygon points="3.07612,-0.382683 3.260896,-0.306146 3.215372,-0.156072 3.019215,-0.19509"/>
	<polygon points="3.019215,-0.19509 3.215372,-0.156072 3.2,1e-06 3.0,-0.0"/>
	<polygon points="3.0,-0.0 3.2,1e-06 3.215372,0.156073 3.019215,0.19509"/>
	<polygon points="3.019215,0.19509 3.215372,0.156073 3.260897,0.306148 3.07612,0.382683"/>
	<polygon points="3.07612,0.382683 3.260897,0.306148 3.334825,0.444457 3.16853,0.55557"/>
	<polygon points="3.16853,0.55557 3.334825,0.444457 3.434315,0.565686 3.292893,0.707107"/>
	<polygon points="3.292893,0.707107 3.434315,0.565686 3.555545,0.665176 3.44443,0.83147"/>
	<polygon points="3.44443,0.83147 3.555545,0.665176 3.693854,0.739104 3.617317,0.92388"/>
	<polygon points="3.617317,0.92388 3.693854,0.739104 3.843929,0.784628 3.80491,0.980785"/>
	<polygon points="3.80491,0.980785 3.843929,0.784628 6.8,0.0 4.0,1.0"/>
	<polygon points="4.0,1.0 6.8,0.0 4.156072,0.784628 4.195091,0.980785"/>
	<polygon points="4.195091,0.980785 4.156072,0.784628 4.306147,0.739104 4.382684,0.923879"/>
	<polygon points="4.0,0.8 4.0,-0.8 3.843927,-0.784628 3.80491,-0.980785"/>
	<polygon points="4.195089,-0.980786 4.156072,-0.784628 4.0,-0.8 4.0,0.8"/>
	<polygon points="4.382682,-0.92388 4.306147,-0.739104 4.156072,-0.784628 4.195089,-0.980786"/>
	<polygon points="4.923879,-0.382684 4.739103,-0.306147 4.665175,-0.444456 4.831469,-0.555571"/>
	<polygon points="4.980785,-0.195091 4.784628,-0.156072 4.739103,-0.306147 4.923879,-0.382684"/>
	<polygon points="5.0,-1e-06 4.8,0.0 4.784628,-0.156072 4.980785,-0.195091"/>
	<polygon points="4.980785,0.195089 4.784628,0.156072 4.8,0.0 5.0,-1e-06"/>
	<polygon points="4.92388,0.382683 4.739103,0.306147 4.784628,0.156072 4.980785,0.195089"/>
	<polygon points="4.382684,0.923879 4.306147,0.739104 4.444456,0.665176 4.555571,0.831469"/>
	<polygon points="4.555571,0.831469 4.444456,0.665176 4.565685,0.565685 4.707107,0.707106"/>
	<polygon points="4.707107,0.707106 4.565685,0.565685 4.665175,0.444456 4.83147,0.55557"/>
	<polygon points="4.83147,0.55557 4.665175,0.444456 4.739103,0.306147 4.92388,0.382683"/>
	<polygon points="4.831469,-0.555571 4.665175,-0.444456 4.565685,-0.565685 4.707106,-0.707108"/>
	<polygon points="4.707106,-0.707108 4.565685,-0.565685 4.444456,-0.665176 4.555569,-0.83147"/>
	<polygon points="4.555569,-0.83147 4.444456,-0.665176 4.306147,-0.739104 4.382682,-0.92388"/>
	<polygon points="7.0,0.0 6.8,-2.0 6.0,-1.0 7.0,-2.0"/>
	<polygon points="5.80491,-0.980785 5.843928,-0.784628 5.693853,-0.739103 5.617317,-0.92388"/>
	<polygon points="5.617317,-0.92388 5.693853,-0.739103 5.555544,-0.665175 5.44443,-0.83147"/>
	<polygon points="5.44443,-0.83147 5.555544,-0.665175 5.434315,-0.565685 5.292893,-0.707107"/>
	<polygon points="5.292893,-0.707107 5.434315,-0.565685 5.334825,-0.444456 5.16853,-0.55557"/>
	<polygon points="5.16853,-0.55557 5.334825,-0.444456 5.260897,-0.306146 5.076121,-0.382683"/>
	<polygon points="5.076121,-0.382683 5.260897,-0.306146 5.215372,-0.156072 5.019215,-0.19509"/>
	<polygon points="5.019215,-0.19509 5.215372,-0.156072 5.2,1e-06 5.0,-0.0"/>
	<polygon points="5.0,-0.0 5.2,1e-06 5.215372,0.156073 5.019215,0.19509"/>
	<polygon points="5.019215,0.19509 5.215372,0.156073 5.260897,0.306148 5.07612,0.382683"/>
	<polygon points="5.07612,0.382683 5.260897,0.306148 5.334825,0.444457 5.16853,0.55557"/>
	<polygon points="5.16853,0.55557 5.334825,0.444457 5.434316,0.565686 5.292893,0.707107"/>
	<polygon points="5.292893,0.707107 5.434316,0.565686 5.555545,0.665176 5.44443,0.83147"/>
	<polygon points="5.44443,0.83147 5.555545,0.665176 5.693854,0.739104 5.617317,0.92388"/>
	<polygon points="5.617317,0.92388 5.693854,0.739104 5.843929,0.784628 5.80491,0.980785"/>
	<polygon points="5.80491,0.980785 5.843929,0.784628 7.05,0.1 6.0,1.0"/>
	<polygon points="6.0,1.0 7.05,0.1 6.156073,0.784628 6.195091,0.980785"/>
	<polygon points="6.195091,0.980785 6.156073,0.784628 6.306147,0.739104 6.382684,0.923879"/>
	<polygon points="6.0,0.8 6.0,-0.8 5.843928,-0.784628 5.80491,-0.980785"/>
	<polygon points="6.195089,-0.980786 6.156072,-0.784628 6.0,-0.8 6.0,0.8"/>
	<polygon points="6.382682,-0.92388 6.306147,-0.739104 6.156072,-0.784628 6.195089,-0.980786"/>
	<polygon points="6.92388,-0.382684 6.739104,-0.306147 6.665176,-0.444456 6.831469,-0.555571"/>
	<polygon points="6.980785,-0.195091 6.784628,-0.156072 6.739104,-0.306147 6.92388,-0.382684"/>
	<polygon points="6.784628,-0.156072 6.980785,-0.195091 6.8,0.0 7.0,-1e-06"/>
	<polygon points="6.92388,0.382683 6.739104,0.306147 6.784628,0.156072 6.980786,0.195089"/>
	<polygon points="6.382684,0.923879 6.306147,0.739104 6.444457,0.665176 6.555571,0.831469"/>
	<polygon points="6.555571,0.831469 6.444457,0.665176 6.565686,0.565685 6.707108,0.707106"/>
	<polygon points="6.707108,0.707106 6.565686,0.565685 6.665176,0.444456 6.83147,0.55557"/>
	<polygon points="6.83147,0.55557 6.665176,0.444456 6.739104,0.306147 6.92388,0.382683"/>
	<polygon points="6.831469,-0.555571 6.665176,-0.444456 6.565686,-0.565685 6.707106,-0.707108"/>
	<polygon points="6.707106,-0.707108 6.565686,-0.565685 6.444457,-0.665176 6.55557,-0.83147"/>
	<polygon points="6.55557,-0.83147 6.444457,-0.665176 6.306147,-0.739104 6.382682,-0.92388"/>
	<polygon points="6.980786,0.195089 6.784628,0.156072 7.05,-0.1 8.95,0.1"/>
	<polygon points="8.95,-0.1 8.0,-1.0 7.617317,-0.923879 7.80491,-0.980785"/>
	<polygon points="7.44443,-0.83147 8.707106,-0.707108 8.555569,-0.83147 7.292893,-0.707107"/>
	<polygon points="7.292893,-0.707107 8.555569,-0.83147 8.382682,-0.92388 7.16853,-0.55557"/>
	<polygon points="7.16853,-0.55557 8.382682,-0.92388 8.195088,-0.980785 7.07612,-0.382683"/>
	<polygon points="7.07612,-0.382683 8.195088,-0.980785 8.0,0.8 7.019215,-0.19509"/>
	<polygon points="7.019215,-0.19509 8.0,0.8 8.156073,0.784628 7.0,-0.0"/>
	<polygon points="7.0,-0.0 8.156073,0.784628 8.306147,0.739103 7.019215,0.19509"/>
	<polygon points="7.019215,0.19509 8.306147,0.739103 8.444456,0.665176 7.07612,0.382683"/>
	<polygon points="7.07612,0.382683 8.444456,0.665176 8.565685,0.565685 7.16853,0.55557"/>
	<polygon points="8.555571,0.831469 8.831469,-0.555571 8.707106,-0.707108 7.44443,-0.83147"/>
	<polygon points="8.382684,0.923879 8.923879,-0.382684 8.831469,-0.555571 8.555571,0.831469"/>
	<polygon points="8.19509,0.980785 8.980785,-0.195091 8.923879,-0.382684 8.382684,0.923879"/>
	<polygon points="7.44443,0.83147 8.83147,0.55557 8.92388,0.382683 7.617317,0.92388"/>
	<polygon points="7.292893,0.707107 8.707108,0.707106 8.83147,0.55557 7.44443,0.83147"/>
	<polygon points="7.617317,0.92388 8.92388,0.382683 8.8,0.099983 7.80491,0.980785"/>
	<polygon points="7.80491,0.980785 8.8,0.099983 9.0,-1e-06 8.0,1.0"/>
	<polygon points="8.0,1.0 9.0,-1e-06 8.980785,-0.195091 8.19509,0.980785"/>
	<polygon points="8.665175,0.444456 8.739103,0.306147 8.8,0.0 9.0,0.099982"/>
	<polygon points="8.784628,-0.156072 10.739104,-0.306147 10.665176,-0.444456 8.739103,-0.306147"/>
	<polygon points="8.739103,-0.306147 10.665176,-0.444456 10.565685,-0.565685 8.665175,-0.444456"/>
	<polygon points="8.665175,-0.444456 10.565685,-0.565685 10.444456,-0.665176 8.565685,-0.565685"/>
	<polygon points="8.565685,-0.565685 10.444456,-0.665176 10.306147,-0.739104 8.444456,-0.665176"/>
	<polygon points="8.444456,-0.665176 10.306147,-0.739104 10.156073,-0.784628 8.306147,-0.739104"/>
	<polygon points="8.306147,-0.739104 10.156073,-0.784628 10.0,-0.8 8.156072,-0.784628"/>
	<polygon points="8.156072,-0.784628 10.0,-0.8 9.843927,-0.784628 8.0,-0.8"/>
	<polygon points="8.0,-0.8 9.843927,-0.784628 9.693853,-0.739103 7.843927,-0.784628"/>
	<polygon points="7.843927,-0.784628 9.693853,-0.739103 9.555544,-0.665175 7.693853,-0.739103"/>
	<polygon points="7.693853,-0.739103 9.555544,-0.665175 9.434315,-0.565685 7.555543,-0.665175"/>
	<polygon points="7.555543,-0.665175 9.434315,-0.565685 9.334825,-0.444456 7.434314,-0.565685"/>
	<polygon points="7.434314,-0.565685 9.334825,-0.444456 9.260897,-0.306146 7.334824,-0.444456"/>
	<polygon points="7.334824,-0.444456 9.260897,-0.306146 9.215372,-0.156072 7.260896,-0.306146"/>
	<polygon points="7.260896,-0.306146 9.215372,-0.156072 9.200001,1e-06 7.215372,-0.156072"/>
	<polygon points="7.215372,-0.156072 9.200001,1e-06 1.05,0.1 7.2,1e-06"/>
	<polygon points="7.2,1e-06 1.05,0.1 9.44443,-0.83147 7.215372,0.156073"/>
	<polygon points="7.215372,0.156073 9.44443,-0.83147 9.292893,-0.707107 7.260897,0.306148"/>
	<polygon points="9.617317,-0.92388 10.784629,-0.156072 10.739104,-0.306147 8.784628,-0.156072"/>
	<polygon points="9.80491,-0.980785 10.8,0.0 10.784629,-0.156072 9.617317,-0.92388"/>
	<polygon points="10.0,-1.0 10.195089,-0.980786 10.8,0.0 9.80491,-0.980785"/>
	<polygon points="9.0,1.0 10.83147,-0.555571 10.707107,-0.707108 9.200001,1.0"/>
	<polygon points="8.740968,0.3 10.92388,-0.382684 10.83147,-0.555571 9.0,1.0"/>
	<polygon points="10.92388,-0.382684 8.740968,0.3 10.980785,-0.195091 8.948961,0.300001"/>
	<polygon points="7.693854,0.739104 9.0,-0.0 11.0,-1e-06 7.843929,0.784628"/>
	<polygon points="7.260897,0.306148 9.292893,-0.707107 9.16853,-0.55557 7.334825,0.444457"/>
	<polygon points="7.334825,0.444457 9.16853,-0.55557 9.07612,-0.382683 7.434315,0.565686"/>
	<polygon points="7.434315,0.565686 9.07612,-0.382683 9.019215,-0.19509 7.555545,0.665176"/>
	<polygon points="7.555545,0.665176 9.019215,-0.19509 9.0,-0.0 7.693854,0.739104"/>
	<polygon points="9.200001,1.0 10.707107,-0.707108 10.55557,-0.83147 9.0,0.0"/>
	<polygon points="9.0,0.0 10.55557,-0.83147 10.382683,-0.92388 9.200001,0.0"/>
	<polygon points="9.200001,0.0 10.382683,-0.92388 10.195089,-0.980786 10.0,-1.0"/>
	<polygon points="7.843929,0.784628 11.0,-1e-06 1.05,-0.1 2.95,0.1"/>
	<polygon points="2.95,-0.1 2.8,0.0 2.784628,-0.156072 2.739104,-0.306147"/>
	<polygon points="2.0,-1.0 2.665176,-0.444456 2.565685,-0.565685 1.80491,-0.980785"/>
	<polygon points="1.80491,-0.980785 2.565685,-0.565685 2.444456,-0.665176 1.617316,-0.923879"/>
	<polygon points="1.617316,-0.923879 2.444456,-0.665176 2.306147,-0.739104 1.44443,-0.83147"/>
	<polygon points="1.44443,-0.83147 2.306147,-0.739104 2.156072,-0.784628 1.292893,-0.707107"/>
	<polygon points="1.292893,-0.707107 2.156072,-0.784628 2.0,-0.8 1.16853,-0.55557"/>
	<polygon points="1.16853,-0.55557 2.0,-0.8 1.843927,-0.784628 1.07612,-0.382683"/>
	<polygon points="1.07612,-0.382683 1.843927,-0.784628 1.693853,-0.739103 1.019215,-0.19509"/>
	<polygon points="1.019215,-0.19509 1.693853,-0.739103 3.0,-1e-06 1.0,-0.0"/>
	<polygon points="1.0,-0.0 3.0,-1e-06 2.980785,-0.195091 1.019215,0.19509"/>
	<polygon points="2.8,0.099983 3.0,0.099982 2.8,0.0 2.95,-0.1"/>
	<polygon points="2.92388,0.382683 2.739104,0.306147 3.0,0.099982 2.8,0.099983"/>
	<polygon points="2.83147,0.55557 2.665176,0.444456 2.739104,0.306147 2.92388,0.382683"/>
	<polygon points="2.195091,0.980785 2.156072,0.784628 2.306147,0.739103 2.382684,0.923879"/>
	<polygon points="2.0,1.0 2.0,0.8 2.156072,0.784628 2.195091,0.980785"/>
	<polygon points="1.80491,0.980785 2.195089,-0.980785 2.0,0.8 2.0,1.0"/>
	<polygon points="1.617317,0.92388 2.382682,-0.92388 2.195089,-0.980785 1.80491,0.980785"/>
	<polygon points="1.44443,0.83147 2.555569,-0.83147 2.382682,-0.92388 1.617317,0.92388"/>
	<polygon points="1.019215,0.19509 2.980785,-0.195091 2.923879,-0.382684 1.07612,0.382683"/>
	<polygon points="1.07612,0.382683 2.923879,-0.382684 2.831469,-0.555571 1.16853,0.55557"/>
	<polygon points="1.16853,0.55557 2.831469,-0.555571 2.707106,-0.707108 1.292893,0.707107"/>
	<polygon points="1.292893,0.707107 2.707106,-0.707108 2.555569,-0.83147 1.44443,0.83147"/>
	<polygon points="2.382684,0.923879 2.306147,0.739103 2.444456,0.665176 2.555571,0.831469"/>
	<polygon points="2.555571,0.831469 2.444456,0.665176 2.565685,0.565685 2.707107,0.707106"/>
	<polygon points="2.707107,0.707106 2.565685,0.565685 2.665176,0.444456 2.83147,0.55557"/>
	<polygon points="1.555543,-0.665175 1.434314,-0.565685 1.260896,-0.306146 1.334824,-0.444456"/>
	<polygon points="1.215372,-0.156072 1.2,1e-06 1.260897,0.306148 1.215372,0.156073"/>
	<polygon points="1.334825,0.444457 -0.0,-0.8 -0.914454,-0.8 1.434315,0.565686"/>
	<polygon points="1.434315,0.565686 -0.914454,-0.8 -0.914454,-1.0 1.555545,0.665176"/>
	<polygon points="1.555545,0.665176 -0.914454,-1.0 -0.8,1e-06 1.693854,0.739104"/>
	<polygon points="1.693854,0.739104 -0.8,1e-06 -0.784628,0.156073 1.843929,0.784628"/>
	<polygon points="1.843929,0.784628 -0.784628,0.156073 -0.739103,0.306148 2.948961,0.300001"/>
	<polygon points="2.948961,0.300001 -0.739103,0.306148 -0.665175,0.444457 2.740968,0.3"/>
	<polygon points="2.740968,0.3 -0.665175,0.444457 -0.565685,0.565686 0.0,-1.0"/>
	<polygon points="0.0,-1.0 -0.565685,0.565686 -0.444455,0.665176 -1.0,-0.0"/>
	<polygon points="-1.0,-0.0 -0.444455,0.665176 -0.306146,0.739104 -0.980785,0.19509"/>
	<polygon points="-0.980785,0.19509 -0.306146,0.739104 -0.156071,0.784628 -0.92388,0.382683"/>
	<polygon points="-0.92388,0.382683 -0.156071,0.784628 -1.0,0.0 -0.83147,0.55557"/>
	<polygon points="-0.83147,0.55557 -1.0,0.0 -0.8,0.0 -0.707107,0.707107"/>
	<polygon points="-0.707107,0.707107 -0.8,0.0 -1.0,-2.5 -0.55557,0.83147"/>
	<polygon points="-0.55557,0.83147 -1.0,-2.5 -0.8,-2.5 -0.382683,0.92388"/>
	<polygon points="-0.382683,0.92388 -0.8,-2.5 1.05,0.1 -0.19509,0.980785"/>
	<polygon points="-0.19509,0.980785 1.05,0.1 0.0,0.8 0.0,1.0"/>
	<polygon points="0.0,1.0 0.0,0.8 0.156072,0.784628 0.195091,0.980785"/>
	<polygon points="0.195089,-0.980786 0.156072,-0.784628 -0.0,-0.8 1.334825,0.444457"/>
	<polygon points="0.382682,-0.92388 0.306147,-0.739104 0.156072,-0.784628 0.195089,-0.980786"/>
	<polygon points="0.555569,-0.83147 0.444456,-0.665176 0.306147,-0.739104 0.382682,-0.92388"/>
	<polygon points="0.980785,-0.195091 0.784628,-0.156072 0.739104,-0.306147 0.923879,-0.382684"/>
	<polygon points="1.0,-1e-06 0.8,0.0 0.784628,-0.156072 0.980785,-0.195091"/>
	<polygon points="0.8,0.0 1.0,-1e-06 0.784628,0.156072 0.980785,0.195089"/>
	<polygon points="0.83147,0.55557 0.665176,0.444456 0.739104,0.306147 0.92388,0.382683"/>
	<polygon points="0.195091,0.980785 0.156072,0.784628 0.306147,0.739104 0.382684,0.923879"/>
	<polygon points="0.382684,0.923879 0.306147,0.739104 0.444456,0.665176 0.555571,0.831469"/>
	<polygon points="0.555571,0.831469 0.444456,0.665176 0.565685,0.565685 0.707107,0.707106"/>
	<polygon points="0.707107,0.707106 0.565685,0.565685 0.665176,0.444456 0.83147,0.55557"/>
	<polygon points="0.923879,-0.382684 0.739104,-0.306147 0.665176,-0.444456 0.831469,-0.555571"/>
	<polygon points="0.831469,-0.555571 0.665176,-0.444456 0.565685,-0.565685 0.707106,-0.707108"/>
	<polygon points="0.707106,-0.707108 0.565685,-0.565685 0.444456,-0.665176 0.555569,-0.83147"/>
	<polygon points="0.92388,0.382683 0.739104,0.306147 1.05,-0.1 2.95,0.1"/>
	<polygon points="2.95,-0.1 2.0,-1.0 1.617316,-0.923879 1.80491,-0.980785"/>
	<polygon points="1.44443,-0.83147 3.0,0.099982 2.8,0.0 1.292893,-0.707107"/>
	<polygon points="1.292893,-0.707107 2.8,0.0 2.784628,-0.156072 1.16853,-0.55557"/>
	<polygon points="1.16853,-0.55557 2.784628,-0.156072 2.739104,-0.306147 1.07612,-0.382683"/>
	<polygon points="1.07612,-0.382683 2.739104,-0.306147 2.665176,-0.444456 1.019215,-0.19509"/>
	<polygon points="1.019215,-0.19509 2.665176,-0.444456 2.565685,-0.565685 1.0,-0.0"/>
	<polygon points="1.0,-0.0 2.565685,-0.565685 2.444456,-0.665176 1.019215,0.19509"/>
	<polygon points="1.019215,0.19509 2.444456,-0.665176 2.306147,-0.739104 1.07612,0.382683"/>
	<polygon points="1.07612,0.382683 2.306147,-0.739104 2.156072,-0.784628 1.16853,0.55557"/>
	<polygon points="1.16853,0.55557 2.156072,-0.784628 2.0,-0.8 1.292893,0.707107"/>
	<polygon points="1.292893,0.707107 2.0,-0.8 1.843927,-0.784628 1.44443,0.83147"/>
	<polygon points="1.44443,0.83147 1.843927,-0.784628 1.693853,-0.739103 1.617317,0.92388"/>
	<polygon points="1.617317,0.92388 1.693853,-0.739103 1.555543,-0.665175 1.80491,0.980785"/>
	<polygon points="1.80491,0.980785 1.555543,-0.665175 1.434314,-0.565685 2.0,1.0"/>
	<polygon points="2.0,1.0 1.434314,-0.565685 1.334824,-0.444456 2.195091,0.980785"/>
	<polygon points="2.195091,0.980785 1.334824,-0.444456 1.260896,-0.306146 2.382684,0.923879"/>
	<polygon points="2.382684,0.923879 1.260896,-0.306146 2.555569,-0.83147 2.555571,0.831469"/>
	<polygon points="2.555571,0.831469 2.555569,-0.83147 2.382682,-0.92388 2.707107,0.707106"/>
	<polygon points="3.0,0.099982 1.44443,-0.83147 2.739104,0.306147 2.707106,-0.707108"/>
	<polygon points="2.923879,-0.382684 2.565685,0.565685 2.665176,0.444456 2.831469,-0.555571"/>
	<polygon points="2.980785,-0.195091 2.444456,0.665176 2.565685,0.565685 2.923879,-0.382684"/>
	<polygon points="3.0,-1e-06 2.306147,0.739103 2.444456,0.665176 2.980785,-0.195091"/>
	<polygon points="2.707107,0.707106 2.382682,-0.92388 2.195089,-0.980785 2.83147,0.55557"/>
	<polygon points="2.83147,0.55557 2.195089,-0.980785 2.0,0.8 2.92388,0.382683"/>
	<polygon points="2.92388,0.382683 2.0,0.8 2.156072,0.784628 2.8,0.099983"/>
	<polygon points="2.8,0.099983 2.156072,0.784628 2.306147,0.739103 3.0,-1e-06"/>
	<polygon points="1.215372,-0.156072 1.2,1e-06 1.260897,0.306148 1.215372,0.156073"/>
	<polygon points="1.334825,0.444457 4.924621,-0.8 4.0,0.8 1.434315,0.565686"/>
	<polygon points="1.434315,0.565686 4.0,0.8 4.156072,0.784628 1.555545,0.665176"/>
	<polygon points="1.555545,0.665176 4.156072,0.784628 4.306147,0.739104 1.693854,0.739104"/>
	<polygon points="1.693854,0.739104 4.306147,0.739104 4.444456,0.665176 1.843929,0.784628"/>
	<polygon points="1.843929,0.784628 4.444456,0.665176 4.565685,0.565685 2.948961,0.300001"/>
	<polygon points="2.948961,0.300001 4.565685,0.565685 4.665175,0.444456 2.740968,0.3"/>
	<polygon points="2.740968,0.3 4.665175,0.444456 4.739103,0.306147 4.8,0.0"/>
	<polygon points="4.8,0.0 4.739103,0.306147 4.784628,0.156072 5.0,0.0"/>
	<polygon points="5.0,0.0 4.784628,0.156072 4.8,0.0 4.8,-2.5"/>
	<polygon points="4.8,-2.5 4.8,0.0 4.924621,-1.0 5.0,-2.5"/>
	<polygon points="5.0,-2.5 4.924621,-1.0 4.0,-0.8 4.0,-1.0"/>
	<polygon points="4.0,-1.0 4.0,-0.8 3.843927,-0.784628 3.80491,-0.980785"/>
	<polygon points="3.80491,-0.980785 3.843927,-0.784628 3.693853,-0.739103 3.617316,-0.92388"/>
	<polygon points="3.617316,-0.92388 3.693853,-0.739103 3.555543,-0.665175 3.44443,-0.83147"/>
	<polygon points="3.44443,-0.83147 3.555543,-0.665175 3.434314,-0.565685 3.292893,-0.707107"/>
	<polygon points="3.292893,-0.707107 3.434314,-0.565685 3.617317,0.92388 3.16853,-0.55557"/>
	<polygon points="3.16853,-0.55557 3.617317,0.92388 3.80491,0.980785 3.07612,-0.382683"/>
	<polygon points="4.924621,-0.8 1.334825,0.444457 5.0,-1e-06 4.980785,0.195089"/>
	<polygon points="3.292893,0.707107 4.83147,0.55557 4.92388,0.382683 3.44443,0.83147"/>
	<polygon points="3.16853,0.55557 4.707107,0.707106 4.83147,0.55557 3.292893,0.707107"/>
	<polygon points="3.07612,0.382683 4.555571,0.831469 4.707107,0.707106 3.16853,0.55557"/>
	<polygon points="3.07612,-0.382683 3.80491,0.980785 4.0,1.0 3.019215,-0.19509"/>
	<polygon points="3.019215,-0.19509 4.0,1.0 4.195091,0.980785 3.0,-0.0"/>
	<polygon points="3.0,-0.0 4.195091,0.980785 4.382684,0.923879 3.019215,0.19509"/>
	<polygon points="3.019215,0.19509 4.382684,0.923879 4.555571,0.831469 3.07612,0.382683"/>
	<polygon points="3.334824,-0.444456 3.260896,-0.306146 3.2,1e-06 3.215372,-0.156072"/>
	<polygon points="3.215372,0.156073 5.843928,-0.784628 5.693853,-0.739103 3.260897,0.306148"/>
	<polygon points="3.260897,0.306148 5.693853,-0.739103 5.555544,-0.665175 3.334825,0.444457"/>
	<polygon points="3.334825,0.444457 5.555544,-0.665175 5.434315,-0.565685 3.434315,0.565686"/>
	<polygon points="3.434315,0.565686 5.434315,-0.565685 5.334825,-0.444456 3.555545,0.665176"/>
	<polygon points="3.555545,0.665176 5.334825,-0.444456 5.260897,-0.306146 3.693854,0.739104"/>
	<polygon points="3.693854,0.739104 5.260897,-0.306146 5.215372,-0.156072 3.843929,0.784628"/>
	<polygon points="3.843929,0.784628 5.215372,-0.156072 5.2,1e-06 6.8,0.0"/>
	<polygon points="6.8,0.0 5.2,1e-06 5.215372,0.156073 7.0,0.0"/>
	<polygon points="7.0,0.0 5.215372,0.156073 5.260897,0.306148 6.8,-2.5"/>
	<polygon points="6.8,-2.5 5.260897,0.306148 5.334825,0.444457 7.0,-2.5"/>
	<polygon points="7.0,-2.5 5.334825,0.444457 5.434316,0.565686 6.0,-1.0"/>
	<polygon points="6.0,-1.0 5.434316,0.565686 5.555545,0.665176 5.80491,-0.980785"/>
	<polygon points="5.80491,-0.980785 5.555545,0.665176 5.693854,0.739104 5.617317,-0.92388"/>
	<polygon points="5.617317,-0.92388 5.693854,0.739104 5.843929,0.784628 5.44443,-0.83147"/>
	<polygon points="5.44443,-0.83147 5.843929,0.784628 7.05,0.1 5.292893,-0.707107"/>
	<polygon points="5.292893,-0.707107 7.05,0.1 6.83147,0.55557 5.16853,-0.55557"/>
	<polygon points="5.16853,-0.55557 6.83147,0.55557 6.92388,0.382683 5.076121,-0.382683"/>
	<polygon points="6.707108,0.707106 6.0,-0.8 5.843928,-0.784628 3.215372,0.156073"/>
	<polygon points="6.555571,0.831469 6.944826,-1.0 6.0,-0.8 6.707108,0.707106"/>
	<polygon points="6.382684,0.923879 6.944825,-0.8 6.944826,-1.0 6.555571,0.831469"/>
	<polygon points="5.617317,0.92388 6.665176,0.444456 6.739104,0.306147 5.80491,0.980785"/>
	<polygon points="5.44443,0.83147 6.565686,0.565685 6.665176,0.444456 5.617317,0.92388"/>
	<polygon points="6.565686,0.565685 5.44443,0.83147 6.444457,0.665176 5.292893,0.707107"/>
	<polygon points="5.07612,0.382683 6.156073,0.784628 6.306147,0.739104 5.16853,0.55557"/>
	<polygon points="5.076121,-0.382683 6.92388,0.382683 6.980786,0.195089 5.019215,-0.19509"/>
	<polygon points="5.019215,-0.19509 6.980786,0.195089 7.0,-1e-06 5.0,-0.0"/>
	<polygon points="5.0,-0.0 7.0,-1e-06 6.0,0.8 5.019215,0.19509"/>
	<polygon points="5.019215,0.19509 6.0,0.8 6.156073,0.784628 5.07612,0.382683"/>
	<polygon points="5.80491,0.980785 6.739104,0.306147 6.784628,0.156072 6.0,1.0"/>
	<polygon points="6.0,1.0 6.784628,0.156072 6.8,0.0 6.195091,0.980785"/>
	<polygon points="6.195091,0.980785 6.8,0.0 6.944825,-0.8 6.382684,0.923879"/>
	<polygon points="5.16853,0.55557 6.306147,0.739104 7.05,-0.1 8.95,0.1"/>
	<polygon points="8.95,-0.1 8.0,-1.0 7.617317,-0.923879 7.80491,-0.980785"/>
	<polygon points="7.44443,-0.83147 8.707106,-0.707108 8.555569,-0.83147 7.292893,-0.707107"/>
	<polygon points="7.292893,-0.707107 8.555569,-0.83147 8.382682,-0.92388 7.16853,-0.55557"/>
	<polygon points="7.16853,-0.55557 8.382682,-0.92388 8.195088,-0.980785 7.07612,-0.382683"/>
	<polygon points="7.07612,-0.382683 8.195088,-0.980785 8.0,0.8 7.019215,-0.19509"/>
	<polygon points="7.019215,-0.19509 8.0,0.8 8.156073,0.784628 7.0,-0.0"/>
	<polygon points="7.0,-0.0 8.156073,0.784628 8.306147,0.739103 7.019215,0.19509"/>
	<polygon points="7.019215,0.19509 8.306147,0.739103 8.444456,0.665176 7.07612,0.382683"/>
	<polygon points="7.07612,0.382683 8.444456,0.665176 8.565685,0.565685 7.16853,0.55557"/>
	<polygon points="8.555571,0.831469 8.831469,-0.555571 8.707106,-0.707108 7.44443,-0.83147"/>
	<polygon points="8.382684,0.923879 8.923879,-0.382684 8.831469,-0.555571 8.555571,0.831469"/>
	<polygon points="8.19509,0.980785 8.980785,-0.195091 8.923879,-0.382684 8.382684,0.923879"/>
	<polygon points="7.44443,0.83147 8.83147,0.55557 8.92388,0.382683 7.617317,0.92388"/>
	<polygon points="7.292893,0.707107 8.707108,0.707106 8.83147,0.55557 7.44443,0.83147"/>
	<polygon points="7.617317,0.92388 8.92388,0.382683 8.8,0.099983 7.80491,0.980785"/>
	<polygon points="7.80491,0.980785 8.8,0.099983 9.0,-1e-06 8.0,1.0"/>
	<polygon points="8.0,1.0 9.0,-1e-06 8.980785,-0.195091 8.19509,0.980785"/>
</svg>