<?xml version="1.0"?>
<svg viewBox="-1 -2 12 3" version="1.1" xmlns="http://www.w3.org/2000/svg">
	<defs>
		<style type="text/css"><![CDATA[
path {
	fill-rule: evenodd;
	opacity: 0.7;
	fill: #555;
}
		]]></style>
	</defs>
	<path d="
		M 6.0 -1.0 6.19509 -0.980785 6.382683 -0.92388 6.55557 -0.83147 6.707107 -0.707107 6.8 -0.593732 6.8 -2.0 7.0 -2.0 7.0 -0.0 6.980785 0.19509 6.92388 0.382683 6.83147 0.55557 6.707107 0.707107 6.55557 0.83147 6.382683 0.92388 6.19509 0.980785 6.0 1.0 5.804909 0.980785 5.617316 0.923879 5.444429 0.831469 5.292893 0.707106 5.16853 0.55557 5.07612 0.382683 5.019215 0.195089 5.0 -1e-06 5.019215 -0.195091 5.076121 -0.382684 5.168531 -0.555571 5.292894 -0.707108 5.444431 -0.83147 5.617318 -0.92388 5.804911 -0.980786 Z
		M 6.0 0.8 5.843928 0.784628 5.693853 0.739104 5.555544 0.665176 5.434315 0.565685 5.334825 0.444456 5.260897 0.306147 5.215372 0.156072 5.2 0.0 5.215372 -0.156072 5.260896 -0.306147 5.334825 -0.444456 5.434315 -0.565685 5.555544 -0.665176 5.693853 -0.739104 5.843928 -0.784628 6.0 -0.8 6.156073 -0.784628 6.306147 -0.739103 6.444457 -0.665175 6.565686 -0.565685 6.665176 -0.444456 6.739104 -0.306146 6.784628 -0.156072 6.8 1e-06 6.784628 0.156073 6.739103 0.306148 6.665175 0.444457 6.565685 0.565686 6.444455 0.665176 6.306146 0.739104 6.156071 0.784628 Z
		M 0.0 -1.0 -0.19509 -0.980785 -0.382683 -0.92388 -0.55557 -0.83147 -0.707107 -0.707107 -0.8 -0.593732 -0.8 -2.0 -1.0 -2.0 -1.0 -0.0 -0.980785 0.19509 -0.92388 0.382683 -0.83147 0.55557 -0.707107 0.707107 -0.55557 0.83147 -0.382683 0.92388 -0.19509 0.980785 0.0 1.0 0.195091 0.980785 0.382684 0.923879 0.555571 0.831469 0.707107 0.707106 0.83147 0.55557 0.92388 0.382683 0.980785 0.195089 1.0 -1e-06 0.980785 -0.195091 0.923879 -0.382684 0.831469 -0.555571 0.707106 -0.707108 0.555569 -0.83147 0.382682 -0.92388 0.195089 -0.980786 Z
		M 0.0 0.8 0.156072 0.784628 0.306147 0.739104 0.444456 0.665176 0.565685 0.565685 0.665176 0.444456 0.739104 0.306147 0.784628 0.156072 0.8 0.0 0.784628 -0.156072 0.739104 -0.306147 0.665176 -0.444456 0.565685 -0.565685 0.444456 -0.665176 0.306147 -0.739104 0.156072 -0.784628 -0.0 -0.8 -0.156073 -0.784628 -0.306147 -0.739103 -0.444457 -0.665175 -0.565686 -0.565685 -0.665176 -0.444456 -0.739104 -0.306146 -0.784628 -0.156072 -0.8 1e-06 -0.784628 0.156073 -0.739103 0.306148 -0.665175 0.444457 -0.565685 0.565686 -0.444455 0.665176 -0.306146 0.739104 -0.156071 0.784628 Z
		M 9.0 1.0 9.200001 1.0 9.200001 0.0 9.215372 -0.156072 9.260897 -0.306146 9.334825 -0.444456 9.434315 -0.565685 9.555544 -0.665175 9.693853 -0.739103 9.843927 -0.784628 10.0 -0.8 10.156073 -0.784628 10.306147 -0.739104 10.444456 -0.665176 10.565685 -0.565685 10.665176 -0.444456 10.739104 -0.306147 10.784629 -0.156072 10.8 0.0 11.0 -1e-06 10.980785 -0.195091 10.92388 -0.382684 10.83147 -0.555571 10.707107 -0.707108 10.55557 -0.83147 10.382683 -0.92388 10.195089 -0.980786 10.0 -1.0 9.80491 -0.980785 9.617317 -0.92388 9.44443 -0.83147 9.292893 -0.707107 9.16853 -0.55557 9.07612 -0.382683 9.019215 -0.19509 9.0 0.0 Z
		M 1.21 0.1 2.8 0.099983 3.0 0.099982 3.0 0.04999 3.0 -1e-06 2.980785 -0.195091 2.923879 -0.382684 2.831469 -0.555571 2.707106 -0.707108 2.555569 -0.83147 2.382682 -0.92388 2.195089 -0.980785 2.0 -1.0 1.80491 -0.980785 1.617316 -0.923879 1.44443 -0.83147 1.292893 -0.707107 1.16853 -0.55557 1.07612 -0.382683 1.019215 -0.19509 1.0 -0.0 1.019215 0.19509 1.07612 0.382683 1.16853 0.55557 1.292893 0.707107 1.44443 0.83147 1.617317 0.92388 1.80491 0.980785 2.0 1.0 2.195091 0.980785 2.382684 0.923879 2.555571 0.831469 2.707107 0.707106 2.83147 0.55557 2.92388 0.382683 2.948961 0.300001 2.740968 0.3 2.739104 0.306147 2.665176 0.444456 2.565685 0.565685 2.444456 0.665176 2.306147 0.739103 2.156072 0.784628 2.0 0.8 1.843929 0.784628 1.693854 0.739104 1.555545 0.665176 1.434315 0.565686 1.334825 0.444457 1.260897 0.306148 1.215372 0.156073 Z
		M 1.21 -0.1 2.79 -0.1 2.784628 -0.156072 2.739104 -0.306147 2.665176 -0.444456 2.565685 -0.565685 2.444456 -0.665176 2.306147 -0.739104 2.156072 -0.784628 2.0 -0.8 1.843927 -0.784628 1.693853 -0.739103 1.555543 -0.665175 1.434314 -0.565685 1.334824 -0.444456 1.260896 -0.306146 1.215372 -0.156072 Z
		M 7.21 0.1 8.8 0.099983 9.0 0.099982 9.0 0.04999 9.0 -1e-06 8.980785 -0.195091 8.923879 -0.382684 8.831469 -0.555571 8.707106 -0.707108 8.555569 -0.83147 8.382682 -0.92388 8.195088 -0.980785 8.0 -1.0 7.80491 -0.980785 7.617317 -0.923879 7.44443 -0.83147 7.292893 -0.707107 7.16853 -0.55557 7.07612 -0.382683 7.019215 -0.19509 7.0 -0.0 7.019215 0.19509 7.07612 0.382683 7.16853 0.55557 7.292893 0.707107 7.44443 0.83147 7.617317 0.92388 7.80491 0.980785 8.0 1.0 8.19509 0.980785 8.382684 0.923879 8.555571 0.831469 8.707108 0.707106 8.83147 0.55557 8.92388 0.382683 8.948961 0.300001 8.740968 0.3 8.739103 0.306147 8.665175 0.444456 8.565685 0.565685 8.444456 0.665176 8.306147 0.739103 8.156073 0.784628 8.0 0.8 7.843929 0.784628 7.693854 0.739104 7.555545 0.665176 7.434315 0.565686 7.334825 0.444457 7.260897 0.306148 7.215372 0.156073 Z
		M 7.21 -0.1 8.79 -0.1 8.784628 -0.156072 8.739103 -0.306147 8.665175 -0.444456 8.565685 -0.565685 8.444456 -0.665176 8.306147 -0.739104 8.156072 -0.784628 8.0 -0.8 7.843927 -0.784628 7.693853 -0.739103 7.555543 -0.665175 7.434314 -0.565685 7.334824 -0.444456 7.260896 -0.306146 7.215372 -0.156072 Z
		M 4.0 -1.0 4.19509 -0.980785 4.382683 -0.92388 4.55557 -0.83147 4.707107 -0.707107 4.8 -0.593732 Z
		M 5.0 -0.0 4.980785 0.19509 4.92388 0.382683 4.83147 0.55557 4.707107 0.707107 4.55557 0.83147 4.382683 0.92388 4.19509 0.980785 4.0 1.0 3.804909 0.980785 3.617316 0.923879 3.444429 0.831469 3.292893 0.707106 3.16853 0.55557 3.07612 0.382683 3.019215 0.195089 3.0 -1e-06 3.019215 -0.195091 3.076121 -0.382684 3.168531 -0.555571 3.292894 -0.707108 3.444431 -0.83147 3.617318 -0.92388 3.804911 -0.980786 4.0 -1.0 4.19509 -0.980785 4.382683 -0.92388 4.55557 -0.83147 4.707107 -0.707107 4.8 -0.593732 Z
		M 4.0 0.8 3.843928 0.784628 3.693853 0.739104 3.555544 0.665176 3.434315 0.565685 3.334824 0.444456 3.260896 0.306147 3.215372 0.156072 3.2 0.0 3.215372 -0.156072 3.260896 -0.306147 3.334824 -0.444456 3.434315 -0.565685 3.555544 -0.665176 3.693853 -0.739104 3.843928 -0.784628 4.0 -0.8 4.156073 -0.784628 4.306147 -0.739103 4.444457 -0.665175 4.565686 -0.565685 4.665176 -0.444456 4.739104 -0.306146 4.784628 -0.156072 4.8 1e-06 4.784628 0.156073 4.739103 0.306148 4.665175 0.444457 4.565685 0.565686 4.444455 0.665176 4.306146 0.739104 4.156071 0.784628 Z
		M 5.0 -2.0 5.0 -0.0 4.980785 0.19509 4.92388 0.382683 4.83147 0.55557 4.707107 0.707107 4.55557 0.83147 4.382683 0.92388 4.19509 0.980785 4.0 1.0 3.804909 0.980785 3.617316 0.923879 3.444429 0.831469 3.292893 0.707106 3.16853 0.55557 3.07612 0.382683 3.019215 0.195089 3.0 -1e-06 3.019215 -0.195091 3.076121 -0.382684 3.168531 -0.555571 3.292894 -0.707108 3.444431 -0.83147 3.617318 -0.92388 3.804911 -0.980786 4.0 -1.0 4.19509 -0.980785 4.382683 -0.92388 4.55557 -0.83147 4.707107 -0.707107 4.8 -0.593732 Z
	"/>
</svg>