<?xml version="1.0"?>
<svg viewBox="-1 -2 12 3" version="1.1" xmlns="http://www.w3.org/2000/svg">
	<defs>
		<style type="text/css"><![CDATA[
path {
	opacity: 0.7;
	fill: #555;
}
		]]></style>
	</defs>
	<path d="
		M -0.707107 -0.707107 -0.8 -0.593732 -0.831492 -0.344415 -0.891368 -0.177304 -1.0 -0.0 Z M 0.0 0.8 0.156072 0.784628 0.306147 0.739104 0.444456 0.665176 0.565685 0.565685 0.665176 0.444456 0.739104 0.306147 0.784628 0.156072 0.8 0.0 0.784628 -0.156072 0.739104 -0.306147 0.665176 -0.444456 0.565685 -0.565685 0.444456 -0.665176 0.306147 -0.739104 0.156072 -0.784628 -0.0 -0.8 -0.156073 -0.784628 -0.306147 -0.739103 -0.444457 -0.665175 -0.565686 -0.565685 Z M -0.665176 -0.444456 -0.739104 -0.306146 -0.784628 -0.156072 -0.8 1e-06 -0.784628 0.156073 -0.739103 0.306148 -0.665175 0.444457 -0.565685 0.565686 -0.444455 0.665176 -0.306146 0.739104 -0.156071 0.784628 0.0 0.8 0.156072 0.784628 0.306147 0.739104 0.444456 0.665176 0.565685 0.565685 0.665176 0.444456 0.739104 0.306147 0.784628 0.156072 0.8 0.0 0.784628 -0.156072 0.739104 -0.306147 0.665176 -0.444456 0.565685 -0.565685 0.444456 -0.665176 0.306147 -0.739104 0.156072 -0.784628 -0.0 -0.8 -0.156073 -0.784628 -0.306147 -0.739103 -0.444457 -0.665175 -0.565686 -0.565685 Z M -1.0 -2.0 -0.8 -2.0 -0.8 -0.593732 -0.707107 -0.707107 Z M 9.0 1.0 9.200001 1.0 9.200001 0.0 9.215372 -0.156072 9.260897 -0.306146 9.334825 -0.444456 9.434315 -0.565685 9.555544 -0.665175 9.693853 -0.739103 9.843927 -0.784628 10.0 -0.8 10.156073 -0.784628 10.306147 -0.739104 10.444456 -0.665176 10.565685 -0.565685 10.665176 -0.444456 10.739104 -0.306147 10.784629 -0.156072 10.8 0.0 11.0 -1e-06 Z M 1.21 0.1 2.8 0.099983 Z M 3.0 0.04999 3.0 -1e-06 2.980785 -0.195091 2.784628 -0.156072 2.79 -0.1 1.21 -0.1 1.215372 -0.156072 1.019215 -0.19509 1.0 -0.0 1.019215 0.19509 1.215372 0.156073 1.21 0.1 2.8 0.099983 Z M 2.0 0.8 2.156072 0.784628 2.306147 0.739103 2.444456 0.665176 2.565685 0.565685 2.665176 0.444456 2.739104 0.306147 2.740968 0.3 2.948961 0.300001 Z M 3.0 0.099982 3.0 0.04999 3.0 -1e-06 2.980785 -0.195091 2.784628 -0.156072 2.79 -0.1 1.21 -0.1 1.215372 -0.156072 1.019215 -0.19509 1.0 -0.0 1.019215 0.19509 1.215372 0.156073 1.21 0.1 2.8 0.099983 Z M 2.739104 -0.306147 2.784628 -0.156072 2.79 -0.1 1.21 -0.1 1.215372 -0.156072 1.019215 -0.19509 1.0 -0.0 1.019215 0.19509 1.215372 0.156073 1.21 0.1 2.8 0.099983 Z M 2.665176 -0.444456 2.739104 -0.306147 2.784628 -0.156072 2.79 -0.1 1.21 -0.1 1.215372 -0.156072 1.019215 -0.19509 1.0 -0.0 1.019215 0.19509 1.215372 0.156073 1.21 0.1 2.8 0.099983 Z M 2.565685 -0.565685 2.665176 -0.444456 2.739104 -0.306147 2.784628 -0.156072 2.79 -0.1 1.21 -0.1 1.215372 -0.156072 1.019215 -0.19509 1.0 -0.0 1.019215 0.19509 1.215372 0.156073 1.21 0.1 2.8 0.099983 Z M 2.444456 -0.665176 2.565685 -0.565685 2.665176 -0.444456 2.739104 -0.306147 2.784628 -0.156072 2.79 -0.1 1.21 -0.1 1.215372 -0.156072 1.019215 -0.19509 1.0 -0.0 1.019215 0.19509 1.215372 0.156073 1.21 0.1 2.8 0.099983 Z M 2.306147 -0.739104 2.444456 -0.665176 2.565685 -0.565685 2.665176 -0.444456 2.739104 -0.306147 2.784628 -0.156072 2.79 -0.1 1.21 -0.1 1.215372 -0.156072 1.019215 -0.19509 1.0 -0.0 1.019215 0.19509 1.215372 0.156073 1.21 0.1 2.8 0.099983 Z M 2.156072 -0.784628 2.306147 -0.739104 2.444456 -0.665176 2.565685 -0.565685 2.665176 -0.444456 2.739104 -0.306147 2.784628 -0.156072 2.79 -0.1 1.21 -0.1 1.215372 -0.156072 1.019215 -0.19509 1.0 -0.0 1.019215 0.19509 1.215372 0.156073 1.21 0.1 2.8 0.099983 Z M 2.0 -0.8 2.156072 -0.784628 2.306147 -0.739104 2.444456 -0.665176 2.565685 -0.565685 2.665176 -0.444456 2.739104 -0.306147 2.784628 -0.156072 2.79 -0.1 1.21 -0.1 1.215372 -0.156072 1.019215 -0.19509 1.0 -0.0 1.019215 0.19509 1.215372 0.156073 1.21 0.1 2.8 0.099983 Z M 1.843927 -0.784628 2.0 -0.8 2.156072 -0.784628 2.306147 -0.739104 2.444456 -0.665176 2.565685 -0.565685 2.665176 -0.444456 2.739104 -0.306147 2.784628 -0.156072 2.79 -0.1 1.21 -0.1 1.215372 -0.156072 1.019215 -0.19509 1.0 -0.0 1.019215 0.19509 1.215372 0.156073 1.21 0.1 2.8 0.099983 Z M 1.693853 -0.739103 1.843927 -0.784628 2.0 -0.8 2.156072 -0.784628 2.306147 -0.739104 2.444456 -0.665176 2.565685 -0.565685 2.665176 -0.444456 2.739104 -0.306147 2.784628 -0.156072 2.79 -0.1 1.21 -0.1 1.215372 -0.156072 1.019215 -0.19509 1.0 -0.0 1.019215 0.19509 1.215372 0.156073 1.21 0.1 2.8 0.099983 Z M 1.555543 -0.665175 1.693853 -0.739103 1.843927 -0.784628 2.0 -0.8 2.156072 -0.784628 2.306147 -0.739104 2.444456 -0.665176 2.565685 -0.565685 2.665176 -0.444456 2.739104 -0.306147 2.784628 -0.156072 2.79 -0.1 1.21 -0.1 1.215372 -0.156072 1.019215 -0.19509 1.0 -0.0 1.019215 0.19509 1.215372 0.156073 1.21 0.1 2.8 0.099983 Z M 1.434314 -0.565685 1.555543 -0.665175 1.693853 -0.739103 1.843927 -0.784628 2.0 -0.8 2.156072 -0.784628 2.306147 -0.739104 2.444456 -0.665176 2.565685 -0.565685 2.665176 -0.444456 2.739104 -0.306147 2.784628 -0.156072 2.79 -0.1 1.21 -0.1 1.215372 -0.156072 1.019215 -0.19509 1.0 -0.0 1.019215 0.19509 1.215372 0.156073 1.21 0.1 2.8 0.099983 Z M 1.334824 -0.444456 1.434314 -0.565685 1.555543 -0.665175 1.693853 -0.739103 1.843927 -0.784628 2.0 -0.8 2.156072 -0.784628 2.306147 -0.739104 2.444456 -0.665176 2.565685 -0.565685 2.665176 -0.444456 2.739104 -0.306147 2.784628 -0.156072 2.79 -0.1 1.21 -0.1 1.215372 -0.156072 1.019215 -0.19509 1.0 -0.0 1.019215 0.19509 1.215372 0.156073 1.21 0.1 2.8 0.099983 Z M 1.260896 -0.306146 1.334824 -0.444456 1.434314 -0.565685 1.555543 -0.665175 1.693853 -0.739103 1.843927 -0.784628 2.0 -0.8 2.156072 -0.784628 2.306147 -0.739104 2.444456 -0.665176 2.565685 -0.565685 2.665176 -0.444456 2.739104 -0.306147 2.784628 -0.156072 2.79 -0.1 1.21 -0.1 1.215372 -0.156072 1.019215 -0.19509 1.0 -0.0 1.019215 0.19509 1.215372 0.156073 1.21 0.1 2.8 0.099983 Z M 1.21 0.0 1.21 -0.1 2.79 -0.1 2.784628 -0.156072 2.980785 -0.195091 3.0 -1e-06 3.0 0.04999 3.0 0.099982 Z M 1.260897 0.306148 1.215372 0.156073 1.21 0.1 2.8 0.099983 Z M 1.334825 0.444457 1.260897 0.306148 1.215372 0.156073 1.21 0.1 2.8 0.099983 Z M 1.434315 0.565686 1.334825 0.444457 1.260897 0.306148 1.215372 0.156073 1.21 0.1 2.8 0.099983 Z M 1.555545 0.665176 1.434315 0.565686 1.334825 0.444457 1.260897 0.306148 1.215372 0.156073 1.21 0.1 2.8 0.099983 Z M 1.693854 0.739104 1.555545 0.665176 1.434315 0.565686 1.334825 0.444457 1.260897 0.306148 1.215372 0.156073 1.21 0.1 2.8 0.099983 Z M 1.843929 0.784628 2.0 0.8 2.156072 0.784628 2.306147 0.739103 2.444456 0.665176 2.565685 0.565685 2.665176 0.444456 2.739104 0.306147 2.740968 0.3 2.948961 0.300001 Z M 2.795 -9e-06 3.0 0.04999 3.0 -1e-06 2.980785 -0.195091 2.784628 -0.156072 2.79 -0.1 1.21 -0.1 1.215372 -0.156072 1.019215 -0.19509 1.0 -0.0 1.019215 0.19509 1.215372 0.156073 1.21 0.1 2.8 0.099983 Z M 7.21 0.1 8.8 0.099983 Z M 9.0 0.04999 9.0 -1e-06 8.980785 -0.195091 8.784628 -0.156072 8.79 -0.1 7.21 -0.1 7.215372 -0.156072 7.019215 -0.19509 7.0 -0.0 7.019215 0.19509 7.215372 0.156073 7.21 0.1 8.8 0.099983 Z M 8.0 0.8 8.156073 0.784628 8.306147 0.739103 8.444456 0.665176 8.565685 0.565685 8.665175 0.444456 8.739103 0.306147 8.740968 0.3 8.948961 0.300001 Z M 9.0 0.099982 9.0 0.04999 9.0 -1e-06 8.980785 -0.195091 8.784628 -0.156072 8.79 -0.1 7.21 -0.1 7.215372 -0.156072 7.019215 -0.19509 7.0 -0.0 7.019215 0.19509 7.215372 0.156073 7.21 0.1 8.8 0.099983 Z M 8.739103 -0.306147 8.784628 -0.156072 8.79 -0.1 7.21 -0.1 7.215372 -0.156072 7.019215 -0.19509 7.0 -0.0 7.019215 0.19509 7.215372 0.156073 7.21 0.1 8.8 0.099983 Z M 8.665175 -0.444456 8.739103 -0.306147 8.784628 -0.156072 8.79 -0.1 7.21 -0.1 7.215372 -0.156072 7.019215 -0.19509 7.0 -0.0 7.019215 0.19509 7.215372 0.156073 7.21 0.1 8.8 0.099983 Z M 8.565685 -0.565685 8.665175 -0.444456 8.739103 -0.306147 8.784628 -0.156072 8.79 -0.1 7.21 -0.1 7.215372 -0.156072 7.019215 -0.19509 7.0 -0.0 7.019215 0.19509 7.215372 0.156073 7.21 0.1 8.8 0.099983 Z M 8.444456 -0.665176 8.565685 -0.565685 8.665175 -0.444456 8.739103 -0.306147 8.784628 -0.156072 8.79 -0.1 7.21 -0.1 7.215372 -0.156072 7.019215 -0.19509 7.0 -0.0 7.019215 0.19509 7.215372 0.156073 7.21 0.1 8.8 0.099983 Z M 8.306147 -0.739104 8.444456 -0.665176 8.565685 -0.565685 8.665175 -0.444456 8.739103 -0.306147 8.784628 -0.156072 8.79 -0.1 7.21 -0.1 7.215372 -0.156072 7.019215 -0.19509 7.0 -0.0 7.019215 0.19509 7.215372 0.156073 7.21 0.1 8.8 0.099983 Z M 8.156072 -0.784628 8.306147 -0.739104 8.444456 -0.665176 8.565685 -0.565685 8.665175 -0.444456 8.739103 -0.306147 8.784628 -0.156072 8.79 -0.1 7.21 -0.1 7.215372 -0.156072 7.019215 -0.19509 7.0 -0.0 7.019215 0.19509 7.215372 0.156073 7.21 0.1 8.8 0.099983 Z M 8.0 -0.8 8.156072 -0.784628 8.306147 -0.739104 8.444456 -0.665176 8.565685 -0.565685 8.665175 -0.444456 8.739103 -0.306147 8.784628 -0.156072 8.79 -0.1 7.21 -0.1 7.215372 -0.156072 7.019215 -0.19509 7.0 -0.0 7.019215 0.19509 7.215372 0.156073 7.21 0.1 8.8 0.099983 Z M 7.843927 -0.784628 8.0 -0.8 8.156072 -0.784628 8.306147 -0.739104 8.444456 -0.665176 8.565685 -0.565685 8.665175 -0.444456 8.739103 -0.306147 8.784628 -0.156072 8.79 -0.1 7.21 -0.1 7.215372 -0.156072 7.019215 -0.19509 7.0 -0.0 7.019215 0.19509 7.215372 0.156073 7.21 0.1 8.8 0.099983 Z M 7.693853 -0.739103 7.843927 -0.784628 8.0 -0.8 8.156072 -0.784628 8.306147 -0.739104 8.444456 -0.665176 8.565685 -0.565685 8.665175 -0.444456 8.739103 -0.306147 8.784628 -0.156072 8.79 -0.1 7.21 -0.1 7.215372 -0.156072 7.019215 -0.19509 7.0 -0.0 7.019215 0.19509 7.215372 0.156073 7.21 0.1 8.8 0.099983 Z M 7.555543 -0.665175 7.693853 -0.739103 7.843927 -0.784628 8.0 -0.8 8.156072 -0.784628 8.306147 -0.739104 8.444456 -0.665176 8.565685 -0.565685 8.665175 -0.444456 8.739103 -0.306147 8.784628 -0.156072 8.79 -0.1 7.21 -0.1 7.215372 -0.156072 7.019215 -0.19509 7.0 -0.0 7.019215 0.19509 7.215372 0.156073 7.21 0.1 8.8 0.099983 Z M 7.434314 -0.565685 7.555543 -0.665175 7.693853 -0.739103 7.843927 -0.784628 8.0 -0.8 8.156072 -0.784628 8.306147 -0.739104 8.444456 -0.665176 8.565685 -0.565685 8.665175 -0.444456 8.739103 -0.306147 8.784628 -0.156072 8.79 -0.1 7.21 -0.1 7.215372 -0.156072 7.019215 -0.19509 7.0 -0.0 7.019215 0.19509 7.215372 0.156073 7.21 0.1 8.8 0.099983 Z M 7.334824 -0.444456 7.434314 -0.565685 7.555543 -0.665175 7.693853 -0.739103 7.843927 -0.784628 8.0 -0.8 8.156072 -0.784628 8.306147 -0.739104 8.444456 -0.665176 8.565685 -0.565685 8.665175 -0.444456 8.739103 -0.306147 8.784628 -0.156072 8.79 -0.1 7.21 -0.1 7.215372 -0.156072 7.019215 -0.19509 7.0 -0.0 7.019215 0.19509 7.215372 0.156073 7.21 0.1 8.8 0.099983 Z M 7.260896 -0.306146 7.334824 -0.444456 7.434314 -0.565685 7.555543 -0.665175 7.693853 -0.739103 7.843927 -0.784628 8.0 -0.8 8.156072 -0.784628 8.306147 -0.739104 8.444456 -0.665176 8.565685 -0.565685 8.665175 -0.444456 8.739103 -0.306147 8.784628 -0.156072 8.79 -0.1 7.21 -0.1 7.215372 -0.156072 7.019215 -0.19509 7.0 -0.0 7.019215 0.19509 7.215372 0.156073 7.21 0.1 8.8 0.099983 Z M 7.21 0.0 7.21 -0.1 8.79 -0.1 8.784628 -0.156072 8.980785 -0.195091 9.0 -1e-06 9.0 0.04999 9.0 0.099982 Z M 7.260897 0.306148 7.215372 0.156073 7.21 0.1 8.8 0.099983 Z M 7.334825 0.444457 7.260897 0.306148 7.215372 0.156073 7.21 0.1 8.8 0.099983 Z M 7.434315 0.565686 7.334825 0.444457 7.260897 0.306148 7.215372 0.156073 7.21 0.1 8.8 0.099983 Z M 7.555545 0.665176 7.434315 0.565686 7.334825 0.444457 7.260897 0.306148 7.215372 0.156073 7.21 0.1 8.8 0.099983 Z M 7.693854 0.739104 7.555545 0.665176 7.434315 0.565686 7.334825 0.444457 7.260897 0.306148 7.215372 0.156073 7.21 0.1 8.8 0.099983 Z M 7.843929 0.784628 8.0 0.8 8.156073 0.784628 8.306147 0.739103 8.444456 0.665176 8.565685 0.565685 8.665175 0.444456 8.739103 0.306147 8.740968 0.3 8.948961 0.300001 Z M 8.795 -9e-06 9.0 0.04999 9.0 -1e-06 8.980785 -0.195091 8.784628 -0.156072 8.79 -0.1 7.21 -0.1 7.215372 -0.156072 7.019215 -0.19509 7.0 -0.0 7.019215 0.19509 7.215372 0.156073 7.21 0.1 8.8 0.099983 Z M 4.0 -1.0 4.19509 -0.980785 4.382683 -0.92388 4.55557 -0.83147 4.707107 -0.707107 4.8 -0.593732 5.0 -0.0 4.980785 0.19509 4.92388 0.382683 4.83147 0.55557 4.707107 0.707107 4.55557 0.83147 4.382683 0.92388 4.19509 0.980785 4.0 1.0 3.804909 0.980785 3.617316 0.923879 3.444429 0.831469 3.292893 0.707106 3.16853 0.55557 3.07612 0.382683 3.019215 0.195089 3.0 -1e-06 3.019215 -0.195091 3.076121 -0.382684 3.168531 -0.555571 3.292894 -0.707108 3.444431 -0.83147 3.617318 -0.92388 3.804911 -0.980786 3.843928 -0.784628 3.693853 -0.739104 3.555544 -0.665176 3.434315 -0.565685 3.334824 -0.444456 3.260896 -0.306147 3.215372 -0.156072 3.2 0.0 3.215372 0.156072 3.260896 0.306147 3.334824 0.444456 3.434315 0.565685 3.555544 0.665176 3.693853 0.739104 3.843928 0.784628 4.0 0.8 4.156071 0.784628 4.306146 0.739104 4.444455 0.665176 4.565685 0.565686 4.665175 0.444457 4.739103 0.306148 4.784628 0.156073 4.8 1e-06 4.784628 -0.156072 4.891368 -0.177304 4.831491 -0.344415 4.739104 -0.306146 Z M 4.0 -0.8 4.0 -1.0 4.19509 -0.980785 4.382683 -0.92388 4.55557 -0.83147 4.707107 -0.707107 4.8 -0.593732 5.0 -0.0 4.980785 0.19509 4.92388 0.382683 4.83147 0.55557 4.707107 0.707107 4.55557 0.83147 4.382683 0.92388 4.19509 0.980785 4.0 1.0 3.804909 0.980785 3.617316 0.923879 3.444429 0.831469 3.292893 0.707106 3.16853 0.55557 3.07612 0.382683 3.019215 0.195089 3.0 -1e-06 3.019215 -0.195091 3.076121 -0.382684 3.168531 -0.555571 3.292894 -0.707108 3.444431 -0.83147 3.617318 -0.92388 3.804911 -0.980786 3.843928 -0.784628 3.693853 -0.739104 3.555544 -0.665176 3.434315 -0.565685 3.334824 -0.444456 3.260896 -0.306147 3.215372 -0.156072 3.2 0.0 3.215372 0.156072 3.260896 0.306147 3.334824 0.444456 3.434315 0.565685 3.555544 0.665176 3.693853 0.739104 3.843928 0.784628 4.0 0.8 4.156071 0.784628 4.306146 0.739104 4.444455 0.665176 4.565685 0.565686 4.665175 0.444457 4.739103 0.306148 4.784628 0.156073 4.8 1e-06 4.784628 -0.156072 4.891368 -0.177304 4.831491 -0.344415 4.739104 -0.306146 Z M 4.156073 -0.784628 4.19509 -0.980785 4.0 -1.0 3.804911 -0.980786 3.617318 -0.92388 3.444431 -0.83147 3.292894 -0.707108 3.168531 -0.555571 3.076121 -0.382684 3.019215 -0.195091 3.0 -1e-06 3.019215 0.195089 3.07612 0.382683 3.16853 0.55557 3.292893 0.707106 3.444429 0.831469 3.617316 0.923879 3.804909 0.980785 4.0 1.0 4.19509 0.980785 4.382683 0.92388 4.55557 0.83147 4.707107 0.707107 4.83147 0.55557 4.92388 0.382683 4.980785 0.19509 5.0 -0.0 4.8 1e-06 4.784628 -0.156072 4.891368 -0.177304 4.831491 -0.344415 4.739104 -0.306146 Z M 4.306147 -0.739103 4.382683 -0.92388 4.19509 -0.980785 4.0 -1.0 3.804911 -0.980786 3.617318 -0.92388 3.444431 -0.83147 3.292894 -0.707108 3.168531 -0.555571 3.076121 -0.382684 3.019215 -0.195091 3.0 -1e-06 3.019215 0.195089 3.07612 0.382683 3.16853 0.55557 3.292893 0.707106 3.444429 0.831469 3.617316 0.923879 3.804909 0.980785 4.0 1.0 4.19509 0.980785 4.382683 0.92388 4.55557 0.83147 4.707107 0.707107 4.83147 0.55557 4.92388 0.382683 4.980785 0.19509 5.0 -0.0 4.8 1e-06 4.784628 -0.156072 4.891368 -0.177304 4.831491 -0.344415 4.739104 -0.306146 Z M 4.444457 -0.665175 4.55557 -0.83147 4.382683 -0.92388 4.19509 -0.980785 4.0 -1.0 3.804911 -0.980786 3.617318 -0.92388 3.444431 -0.83147 3.292894 -0.707108 3.168531 -0.555571 3.076121 -0.382684 3.019215 -0.195091 3.0 -1e-06 3.019215 0.195089 3.07612 0.382683 3.16853 0.55557 3.292893 0.707106 3.444429 0.831469 3.617316 0.923879 3.804909 0.980785 4.0 1.0 4.19509 0.980785 4.382683 0.92388 4.55557 0.83147 4.707107 0.707107 4.83147 0.55557 4.92388 0.382683 4.980785 0.19509 5.0 -0.0 4.8 1e-06 4.784628 -0.156072 4.891368 -0.177304 4.831491 -0.344415 4.739104 -0.306146 Z M 4.565686 -0.565685 4.444457 -0.665175 4.55557 -0.83147 4.382683 -0.92388 4.19509 -0.980785 4.0 -1.0 3.804911 -0.980786 3.617318 -0.92388 3.444431 -0.83147 3.292894 -0.707108 3.168531 -0.555571 3.076121 -0.382684 3.019215 -0.195091 3.0 -1e-06 3.019215 0.195089 3.07612 0.382683 3.16853 0.55557 3.292893 0.707106 3.444429 0.831469 3.617316 0.923879 3.804909 0.980785 4.0 1.0 4.19509 0.980785 4.382683 0.92388 4.55557 0.83147 4.707107 0.707107 4.83147 0.55557 4.92388 0.382683 4.980785 0.19509 5.0 -0.0 4.8 1e-06 4.784628 -0.156072 4.891368 -0.177304 4.831491 -0.344415 4.739104 -0.306146 Z M 4.665176 -0.444456 4.565686 -0.565685 4.444457 -0.665175 4.55557 -0.83147 4.382683 -0.92388 4.19509 -0.980785 4.0 -1.0 3.804911 -0.980786 3.617318 -0.92388 3.444431 -0.83147 3.292894 -0.707108 3.168531 -0.555571 3.076121 -0.382684 3.019215 -0.195091 3.0 -1e-06 3.019215 0.195089 3.07612 0.382683 3.16853 0.55557 3.292893 0.707106 3.444429 0.831469 3.617316 0.923879 3.804909 0.980785 4.0 1.0 4.19509 0.980785 4.382683 0.92388 4.55557 0.83147 4.707107 0.707107 4.83147 0.55557 4.92388 0.382683 4.980785 0.19509 5.0 -0.0 4.8 1e-06 4.784628 -0.156072 4.891368 -0.177304 4.831491 -0.344415 4.739104 -0.306146 Z M 5.0 -2.0 5.0 -0.0 4.980785 0.19509 4.92388 0.382683 4.83147 0.55557 4.707107 0.707107 4.55557 0.83147 4.382683 0.92388 4.19509 0.980785 4.0 1.0 3.804909 0.980785 3.617316 0.923879 3.444429 0.831469 3.292893 0.707106 3.16853 0.55557 3.07612 0.382683 3.019215 0.195089 3.0 -1e-06 3.019215 -0.195091 3.076121 -0.382684 3.168531 -0.555571 3.292894 -0.707108 3.444431 -0.83147 3.617318 -0.92388 3.804911 -0.980786 4.0 -1.0 4.19509 -0.980785 4.382683 -0.92388 4.55557 -0.83147 4.707107 -0.707107 4.8 -0.593732 4.665176 -0.444456 4.565686 -0.565685 4.444457 -0.665175 4.306147 -0.739103 4.156073 -0.784628 4.0 -0.8 3.843928 -0.784628 3.693853 -0.739104 3.555544 -0.665176 3.434315 -0.565685 3.334824 -0.444456 3.260896 -0.306147 3.215372 -0.156072 3.2 0.0 3.215372 0.156072 3.260896 0.306147 3.334824 0.444456 3.434315 0.565685 3.555544 0.665176 3.693853 0.739104 3.843928 0.784628 4.0 0.8 4.156071 0.784628 4.306146 0.739104 4.444455 0.665176 4.565685 0.565686 4.665175 0.444457 4.739103 0.306148 4.784628 0.156073 4.8 1e-06 4.784628 -0.156072 4.891368 -0.177304 4.831491 -0.344415 4.739104 -0.306146 Z M 4.8 -2.0 4.8 -0.593732 4.707107 -0.707107 4.55557 -0.83147 4.382683 -0.92388 4.19509 -0.980785 4.0 -1.0 3.804911 -0.980786 3.617318 -0.92388 3.444431 -0.83147 3.292894 -0.707108 3.168531 -0.555571 3.076121 -0.382684 3.019215 -0.195091 3.0 -1e-06 3.019215 0.195089 3.07612 0.382683 3.16853 0.55557 3.292893 0.707106 3.444429 0.831469 3.617316 0.923879 3.804909 0.980785 4.0 1.0 4.19509 0.980785 4.382683 0.92388 4.55557 0.83147 4.707107 0.707107 4.83147 0.55557 4.92388 0.382683 4.980785 0.19509 5.0 -0.0 4.8 1e-06 4.784628 -0.156072 4.891368 -0.177304 4.831491 -0.344415 4.739104 -0.306146 Z M 6.0 -1.0 6.19509 -0.980785 6.382683 -0.92388 6.55557 -0.83147 6.707107 -0.707107 6.8 -0.593732 7.0 -0.0 6.980785 0.19509 6.92388 0.382683 6.83147 0.55557 6.707107 0.707107 6.55557 0.83147 6.382683 0.92388 6.19509 0.980785 6.0 1.0 5.804909 0.980785 5.617316 0.923879 5.444429 0.831469 5.292893 0.707106 5.16853 0.55557 5.07612 0.382683 5.019215 0.195089 5.0 -1e-06 5.019215 -0.195091 5.076121 -0.382684 5.168531 -0.555571 5.292894 -0.707108 5.444431 -0.83147 5.617318 -0.92388 5.804911 -0.980786 5.843928 -0.784628 5.693853 -0.739104 5.555544 -0.665176 5.434315 -0.565685 5.334825 -0.444456 5.260896 -0.306147 5.215372 -0.156072 5.2 0.0 5.215372 0.156072 5.260897 0.306147 5.334825 0.444456 5.434315 0.565685 5.555544 0.665176 5.693853 0.739104 5.843928 0.784628 6.0 0.8 6.156071 0.784628 6.306146 0.739104 6.444455 0.665176 6.565685 0.565686 6.665175 0.444457 6.739103 0.306148 6.784628 0.156073 6.8 1e-06 6.784628 -0.156072 6.891368 -0.177304 6.831491 -0.344415 6.739104 -0.306146 Z M 6.0 -0.8 6.0 -1.0 6.19509 -0.980785 6.382683 -0.92388 6.55557 -0.83147 6.707107 -0.707107 6.8 -0.593732 7.0 -0.0 6.980785 0.19509 6.92388 0.382683 6.83147 0.55557 6.707107 0.707107 6.55557 0.83147 6.382683 0.92388 6.19509 0.980785 6.0 1.0 5.804909 0.980785 5.617316 0.923879 5.444429 0.831469 5.292893 0.707106 5.16853 0.55557 5.07612 0.382683 5.019215 0.195089 5.0 -1e-06 5.019215 -0.195091 5.076121 -0.382684 5.168531 -0.555571 5.292894 -0.707108 5.444431 -0.83147 5.617318 -0.92388 5.804911 -0.980786 5.843928 -0.784628 5.693853 -0.739104 5.555544 -0.665176 5.434315 -0.565685 5.334825 -0.444456 5.260896 -0.306147 5.215372 -0.156072 5.2 0.0 5.215372 0.156072 5.260897 0.306147 5.334825 0.444456 5.434315 0.565685 5.555544 0.665176 5.693853 0.739104 5.843928 0.784628 6.0 0.8 6.156071 0.784628 6.306146 0.739104 6.444455 0.665176 6.565685 0.565686 6.665175 0.444457 6.739103 0.306148 6.784628 0.156073 6.8 1e-06 6.784628 -0.156072 6.891368 -0.177304 6.831491 -0.344415 6.739104 -0.306146 Z M 6.156073 -0.784628 6.19509 -0.980785 6.0 -1.0 5.804911 -0.980786 5.617318 -0.92388 5.444431 -0.83147 5.292894 -0.707108 5.168531 -0.555571 5.076121 -0.382684 5.019215 -0.195091 5.0 -1e-06 5.019215 0.195089 5.07612 0.382683 5.16853 0.55557 5.292893 0.707106 5.444429 0.831469 5.617316 0.923879 5.804909 0.980785 6.0 1.0 6.19509 0.980785 6.382683 0.92388 6.55557 0.83147 6.707107 0.707107 6.83147 0.55557 6.92388 0.382683 6.980785 0.19509 7.0 -0.0 6.8 1e-06 6.784628 -0.156072 6.891368 -0.177304 6.831491 -0.344415 6.739104 -0.306146 Z M 6.306147 -0.739103 6.382683 -0.92388 6.19509 -0.980785 6.0 -1.0 5.804911 -0.980786 5.617318 -0.92388 5.444431 -0.83147 5.292894 -0.707108 5.168531 -0.555571 5.076121 -0.382684 5.019215 -0.195091 5.0 -1e-06 5.019215 0.195089 5.07612 0.382683 5.16853 0.55557 5.292893 0.707106 5.444429 0.831469 5.617316 0.923879 5.804909 0.980785 6.0 1.0 6.19509 0.980785 6.382683 0.92388 6.55557 0.83147 6.707107 0.707107 6.83147 0.55557 6.92388 0.382683 6.980785 0.19509 7.0 -0.0 6.8 1e-06 6.784628 -0.156072 6.891368 -0.177304 6.831491 -0.344415 6.739104 -0.306146 Z M 6.444457 -0.665175 6.55557 -0.83147 6.382683 -0.92388 6.19509 -0.980785 6.0 -1.0 5.804911 -0.980786 5.617318 -0.92388 5.444431 -0.83147 5.292894 -0.707108 5.168531 -0.555571 5.076121 -0.382684 5.019215 -0.195091 5.0 -1e-06 5.019215 0.195089 5.07612 0.382683 5.16853 0.55557 5.292893 0.707106 5.444429 0.831469 5.617316 0.923879 5.804909 0.980785 6.0 1.0 6.19509 0.980785 6.382683 0.92388 6.55557 0.83147 6.707107 0.707107 6.83147 0.55557 6.92388 0.382683 6.980785 0.19509 7.0 -0.0 6.8 1e-06 6.784628 -0.156072 6.891368 -0.177304 6.831491 -0.344415 6.739104 -0.306146 Z M 6.565686 -0.565685 6.444457 -0.665175 6.55557 -0.83147 6.382683 -0.92388 6.19509 -0.980785 6.0 -1.0 5.804911 -0.980786 5.617318 -0.92388 5.444431 -0.83147 5.292894 -0.707108 5.168531 -0.555571 5.076121 -0.382684 5.019215 -0.195091 5.0 -1e-06 5.019215 0.195089 5.07612 0.382683 5.16853 0.55557 5.292893 0.707106 5.444429 0.831469 5.617316 0.923879 5.804909 0.980785 6.0 1.0 6.19509 0.980785 6.382683 0.92388 6.55557 0.83147 6.707107 0.707107 6.83147 0.55557 6.92388 0.382683 6.980785 0.19509 7.0 -0.0 6.8 1e-06 6.784628 -0.156072 6.891368 -0.177304 6.831491 -0.344415 6.739104 -0.306146 Z M 6.665176 -0.444456 6.565686 -0.565685 6.444457 -0.665175 6.55557 -0.83147 6.382683 -0.92388 6.19509 -0.980785 6.0 -1.0 5.804911 -0.980786 5.617318 -0.92388 5.444431 -0.83147 5.292894 -0.707108 5.168531 -0.555571 5.076121 -0.382684 5.019215 -0.195091 5.0 -1e-06 5.019215 0.195089 5.07612 0.382683 5.16853 0.55557 5.292893 0.707106 5.444429 0.831469 5.617316 0.923879 5.804909 0.980785 6.0 1.0 6.19509 0.980785 6.382683 0.92388 6.55557 0.83147 6.707107 0.707107 6.83147 0.55557 6.92388 0.382683 6.980785 0.19509 7.0 -0.0 6.8 1e-06 6.784628 -0.156072 6.891368 -0.177304 6.831491 -0.344415 6.739104 -0.306146 Z M 7.0 -2.0 7.0 -0.0 6.980785 0.19509 6.92388 0.382683 6.83147 0.55557 6.707107 0.707107 6.55557 0.83147 6.382683 0.92388 6.19509 0.980785 6.0 1.0 5.804909 0.980785 5.617316 0.923879 5.444429 0.831469 5.292893 0.707106 5.16853 0.55557 5.07612 0.382683 5.019215 0.195089 5.0 -1e-06 5.019215 -0.195091 5.076121 -0.382684 5.168531 -0.555571 5.292894 -0.707108 5.444431 -0.83147 5.617318 -0.92388 5.804911 -0.980786 6.0 -1.0 6.19509 -0.980785 6.382683 -0.92388 6.55557 -0.83147 6.707107 -0.707107 6.8 -0.593732 6.665176 -0.444456 6.565686 -0.565685 6.444457 -0.665175 6.306147 -0.739103 6.156073 -0.784628 6.0 -0.8 5.843928 -0.784628 5.693853 -0.739104 5.555544 -0.665176 5.434315 -0.565685 5.334825 -0.444456 5.260896 -0.306147 5.215372 -0.156072 5.2 0.0 5.215372 0.156072 5.260897 0.306147 5.334825 0.444456 5.434315 0.565685 5.555544 0.665176 5.693853 0.739104 5.843928 0.784628 6.0 0.8 6.156071 0.784628 6.306146 0.739104 6.444455 0.665176 6.565685 0.565686 6.665175 0.444457 6.739103 0.306148 6.784628 0.156073 6.8 1e-06 6.784628 -0.156072 6.891368 -0.177304 6.831491 -0.344415 6.739104 -0.306146 Z
	"/>
</svg>